<svg width="274" height="301" viewBox="0 0 274 301" fill="none" xmlns="http://www.w3.org/2000/svg">
<path d="M57.5169 178.898C56.3271 177.971 57.1412 176.055 58.6316 176.28C72.759 178.485 108.541 183.07 134.065 183.07C162.282 183.07 191.101 179.024 204.364 176.631C205.917 176.355 206.744 178.36 205.454 179.262C192.478 188.319 160.416 210.619 148.969 218.048C148.556 218.324 148.343 218.75 148.343 219.251V292.452C148.343 293.128 147.88 293.717 147.228 293.867L118.648 300.958C117.721 301.183 116.832 300.482 116.832 299.542V219.652C116.832 219.138 116.556 218.662 116.118 218.399C111.271 215.53 82.7283 198.454 57.5169 178.898Z" fill="#A1C353"/>
<path d="M136.103 165.414C136.103 165.414 177.154 159.477 195.75 149.179C212.521 139.889 245.077 107.709 255.193 87.7681C273.764 51.1256 273.215 31.4493 273.764 23.2435C274.326 15.0377 272.704 0 272.704 0C272.704 0 234.221 2.19326 182.876 47.2937C127.239 96.1882 136.103 165.414 136.103 165.414Z" fill="#A1C353"/>
<path d="M0 29.8291C0 29.8291 4.84625 64.3356 10.8601 80.7733C16.5099 96.1994 36.2464 129.037 52.0281 139.999C81.0303 160.142 97.854 162.039 104.772 163.505C111.69 164.972 124.684 165.415 124.684 165.415C124.684 165.415 127.371 132.577 95.0292 83.6688C59.988 30.6636 0 29.8291 0 29.8291Z" fill="#A1C353"/>
</svg>
