<svg width="231" height="92" viewBox="0 0 231 92" fill="none" xmlns="http://www.w3.org/2000/svg">
<g filter="url(#filter0_d_3404_5153)">
<rect x="14" y="7" width="203" height="64" rx="32" fill="#EADFD1" shape-rendering="crispEdges"/>
<path d="M52.256 40.9956C52.1662 40.9262 52.2276 40.7827 52.34 40.7996C53.4057 40.9646 56.1047 41.3078 58.03 41.3078C60.1584 41.3078 62.3322 41.0049 63.3326 40.8258C63.4497 40.8052 63.5121 40.9552 63.4148 41.0227C62.4361 41.7006 60.0176 43.3696 59.1542 43.9256C59.123 43.9463 59.1069 43.9781 59.1069 44.0157V49.4942C59.1069 49.5449 59.072 49.5889 59.0229 49.6002L56.8671 50.1309C56.7971 50.1477 56.7301 50.0952 56.7301 50.0249V44.0457C56.7301 44.0072 56.7093 43.9716 56.6762 43.9519C56.3106 43.7372 54.1576 42.4592 52.256 40.9956Z" fill="#013322"/>
<path d="M58.2395 40.1705C58.2395 40.1705 61.2757 39.7289 62.6512 38.9628C63.8916 38.2718 66.2997 35.878 67.0479 34.3947C68.4215 31.669 68.3808 30.2054 68.4215 29.595C68.463 28.9846 68.3431 27.866 68.3431 27.866C68.3431 27.866 65.4967 28.0291 61.699 31.384C57.5838 35.021 58.2395 40.1695 58.2395 40.1695V40.1705Z" fill="#013322"/>
<path d="M48 30.1163C48 30.1163 48.3647 32.6751 48.8172 33.894C49.2423 35.0379 50.7274 37.4729 51.9148 38.2858C54.0971 39.7795 55.363 39.9201 55.8835 40.0289C56.4041 40.1377 57.3818 40.1705 57.3818 40.1705C57.3818 40.1705 57.584 37.7354 55.1505 34.1087C52.5138 30.1782 48 30.1163 48 30.1163Z" fill="#013322"/>
<path d="M77.4043 39.2816C77.4043 35.9924 79.8577 33.6615 83.1925 33.6615C86.5273 33.6615 88.9599 35.9924 88.9599 39.2816C88.9599 42.5708 86.5273 44.9224 83.1925 44.9224C79.8577 44.9224 77.4043 42.5699 77.4043 39.2816ZM86.926 39.2816C86.926 36.9291 85.3322 35.4102 83.1925 35.4102C81.0527 35.4102 79.4382 36.9301 79.4382 39.2816C79.4382 41.6332 81.0527 43.1737 83.1925 43.1737C85.3322 43.1737 86.926 41.6332 86.926 39.2816Z" fill="#013322"/>
<path d="M97.7272 33.6615V35.5977C97.559 35.5771 97.4126 35.5771 97.2661 35.5771C95.1056 35.5771 93.7641 36.8888 93.7641 39.3032V44.7987H91.751V33.7665H93.6801V35.6193C94.3933 34.3291 95.7773 33.6624 97.7281 33.6624L97.7272 33.6615Z" fill="#013322"/>
<path d="M100.2 41.5497V29.3521H102.213V41.3838C102.213 42.5699 102.779 43.2365 103.933 43.2365C104.311 43.2365 104.688 43.1324 104.918 43.0284L105.023 44.673C104.562 44.8399 104.058 44.9224 103.576 44.9224C101.415 44.9224 100.199 43.6735 100.199 41.5507L100.2 41.5497Z" fill="#013322"/>
<path d="M114.946 41.8413L116.036 43.1315C115.051 44.2969 113.519 44.9214 111.673 44.9214C108.087 44.9214 105.696 42.5689 105.696 39.2806C105.696 35.9923 108.045 33.6605 111.275 33.6605C114.316 33.6605 116.686 35.7833 116.748 39.0725L107.919 40.7789C108.485 42.2988 109.87 43.1727 111.736 43.1727C113.036 43.1727 114.127 42.7358 114.945 41.8403L114.946 41.8413ZM107.647 39.1775V39.3856L114.757 38.0533C114.401 36.4715 113.079 35.3473 111.276 35.3473C109.158 35.3473 107.647 36.8672 107.647 39.1775Z" fill="#013322"/>
<path d="M130.193 33.7656V43.2994C130.193 47.1915 128.2 48.9608 124.425 48.9608C122.391 48.9608 120.336 48.3992 119.119 47.3162L120.083 45.7757C121.111 46.6495 122.726 47.2121 124.362 47.2121C126.984 47.2121 128.179 46.0044 128.179 43.5066V42.6327C127.214 43.7776 125.767 44.3392 124.173 44.3392C120.964 44.3392 118.531 42.1742 118.531 38.99C118.531 35.8059 120.964 33.6615 124.173 33.6615C125.83 33.6615 127.34 34.2653 128.283 35.4721V33.7656H130.192H130.193ZM128.221 38.99C128.221 36.8457 126.627 35.4102 124.404 35.4102C122.182 35.4102 120.566 36.8466 120.566 38.99C120.566 41.1335 122.16 42.5915 124.404 42.5915C126.649 42.5915 128.221 41.1138 128.221 38.99Z" fill="#013322"/>
<path d="M133.673 30.3516C133.673 29.6231 134.26 29.0399 135.036 29.0399C135.812 29.0399 136.399 29.6015 136.399 30.3094C136.399 31.0586 135.833 31.6418 135.036 31.6418C134.239 31.6418 133.673 31.0801 133.673 30.3516ZM134.03 33.7655H136.043V44.7976H134.03V33.7655Z" fill="#013322"/>
<path d="M145.732 44.1517C145.123 44.6721 144.2 44.9215 143.299 44.9215C141.055 44.9215 139.775 43.6932 139.775 41.4664V31.3503H141.789V33.7647H144.976V35.4093H141.789V41.3829C141.789 42.569 142.397 43.2357 143.53 43.2357C144.117 43.2357 144.683 43.0481 145.103 42.7153L145.732 44.1517Z" fill="#013322"/>
<path d="M156.009 41.8413L157.1 43.1315C156.114 44.2969 154.583 44.9214 152.737 44.9214C149.151 44.9214 146.76 42.5689 146.76 39.2806C146.76 35.9923 149.108 33.6605 152.338 33.6605C155.379 33.6605 157.749 35.7833 157.812 39.0725L148.983 40.7789C149.549 42.2988 150.933 43.1727 152.799 43.1727C154.099 43.1727 155.19 42.7358 156.008 41.8403L156.009 41.8413ZM148.711 39.1775V39.3856L155.82 38.0533C155.464 36.4715 154.143 35.3473 152.339 35.3473C150.221 35.3473 148.711 36.8672 148.711 39.1775Z" fill="#013322"/>
<path d="M159.595 39.2816C159.595 35.9924 162.048 33.6615 165.467 33.6615C167.459 33.6615 169.116 34.4735 169.997 36.014L168.465 36.992C167.752 35.9099 166.662 35.4102 165.445 35.4102C163.264 35.4102 161.629 36.9301 161.629 39.2816C161.629 41.6332 163.265 43.1737 165.445 43.1737C166.662 43.1737 167.752 42.674 168.465 41.592L169.997 42.5493C169.116 44.0898 167.459 44.9224 165.467 44.9224C162.048 44.9224 159.595 42.5699 159.595 39.2816Z" fill="#013322"/>
<path d="M183 38.449V44.7977H180.987V38.6778C180.987 36.5128 179.896 35.4514 177.987 35.4514C175.848 35.4514 174.463 36.7209 174.463 39.1147V44.7977H172.45V29.3521H174.463V35.3257C175.302 34.2644 176.686 33.6605 178.385 33.6605C181.09 33.6605 182.999 35.201 182.999 38.4481L183 38.449Z" fill="#013322"/>
</g>
<defs>
<filter id="filter0_d_3404_5153" x="0" y="0" width="231" height="92" filterUnits="userSpaceOnUse" color-interpolation-filters="sRGB">
<feFlood flood-opacity="0" result="BackgroundImageFix"/>
<feColorMatrix in="SourceAlpha" type="matrix" values="0 0 0 0 0 0 0 0 0 0 0 0 0 0 0 0 0 0 127 0" result="hardAlpha"/>
<feOffset dy="7"/>
<feGaussianBlur stdDeviation="7"/>
<feComposite in2="hardAlpha" operator="out"/>
<feColorMatrix type="matrix" values="0 0 0 0 0 0 0 0 0 0 0 0 0 0 0 0 0 0 0.25 0"/>
<feBlend mode="normal" in2="BackgroundImageFix" result="effect1_dropShadow_3404_5153"/>
<feBlend mode="normal" in="SourceGraphic" in2="effect1_dropShadow_3404_5153" result="shape"/>
</filter>
</defs>
</svg>
