<svg width="921" height="173" viewBox="0 0 921 173" fill="none" xmlns="http://www.w3.org/2000/svg">
<g filter="url(#filter0_d_3844_7845)">
<path d="M40.2823 95.4741C39.686 95.0119 40.094 94.0561 40.8409 94.1685C47.9214 95.268 65.8548 97.5543 78.6473 97.5543C92.7894 97.5543 107.233 95.5366 113.88 94.3435C114.658 94.206 115.073 95.2055 114.426 95.6553C107.923 100.172 91.8541 111.291 86.1169 114.995C85.9098 115.133 85.8031 115.345 85.8031 115.595V152.095C85.8031 152.433 85.5708 152.726 85.2444 152.801L70.9203 156.337C70.4558 156.449 70.0101 156.1 70.0101 155.631V115.795C70.0101 115.539 69.872 115.302 69.6523 115.17C67.2232 113.74 52.9179 105.225 40.2823 95.4741Z" fill="#A1C353"/>
<path d="M80.0415 89.9771C80.0415 89.9771 100.216 87.0349 109.355 81.9312C117.597 77.3273 133.597 61.3791 138.568 51.4967C147.695 33.3371 147.425 23.5858 147.695 19.5191C147.971 15.4525 147.174 8 147.174 8C147.174 8 128.261 9.08695 103.028 31.4381C75.6852 55.6695 80.0415 89.9709 80.0415 89.9709V89.9771Z" fill="#A1C353"/>
<path d="M12 22.9924C12 22.9924 14.4229 40.04 17.4296 48.1609C20.2543 55.782 30.1217 72.005 38.0119 77.421C52.5117 87.3722 60.9229 88.3092 64.3815 89.0339C67.8402 89.7585 74.3369 89.9771 74.3369 89.9771C74.3369 89.9771 75.6801 73.7541 59.5106 49.5914C41.9915 23.4047 12 22.9924 12 22.9924Z" fill="#A1C353"/>
<path d="M207.377 84.0556C207.377 62.1418 223.678 46.6122 245.836 46.6122C267.994 46.6122 284.157 62.1418 284.157 84.0556C284.157 105.969 267.994 121.637 245.836 121.637C223.678 121.637 207.377 105.963 207.377 84.0556ZM270.643 84.0556C270.643 68.3823 260.053 58.2625 245.836 58.2625C231.619 58.2625 220.891 68.3886 220.891 84.0556C220.891 99.7227 231.619 109.986 245.836 109.986C260.053 109.986 270.643 99.7227 270.643 84.0556Z" fill="white"/>
<path d="M342.411 46.6122V59.5118C341.294 59.3744 340.321 59.3744 339.348 59.3744C324.993 59.3744 316.079 68.1137 316.079 84.1993V120.812H302.703V47.3118H315.521V59.6555C320.26 51.0599 329.456 46.6184 342.418 46.6184L342.411 46.6122Z" fill="white"/>
<path d="M358.846 99.1664V17.9015H372.222V98.0607C372.222 105.963 375.982 110.404 383.647 110.404C386.157 110.404 388.662 109.711 390.193 109.018L390.89 119.975C387.827 121.087 384.481 121.636 381.274 121.636C366.918 121.636 358.84 113.315 358.84 99.1727L358.846 99.1664Z" fill="white"/>
<path d="M456.815 101.109L464.059 109.705C457.512 117.469 447.337 121.63 435.072 121.63C411.244 121.63 395.357 105.957 395.357 84.0489C395.357 62.1413 410.962 46.6055 432.423 46.6055C452.629 46.6055 468.378 60.7483 468.792 82.6621L410.127 94.0314C413.887 104.157 423.089 109.98 435.486 109.98C444.123 109.98 451.373 107.068 456.809 101.103L456.815 101.109ZM408.319 83.3618V84.7486L455.56 75.8718C453.194 65.3334 444.412 57.8435 432.429 57.8435C418.356 57.8435 408.319 67.9696 408.319 83.3618Z" fill="white"/>
<path d="M558.12 47.3056V110.823C558.12 136.754 544.882 148.542 519.799 148.542C506.285 148.542 492.626 144.8 484.541 137.585L490.95 127.321C497.779 133.143 508.507 136.891 519.378 136.891C536.797 136.891 544.737 128.845 544.737 112.204V106.382C538.329 114.009 528.712 117.751 518.123 117.751C496.8 117.751 480.637 103.327 480.637 82.1129C480.637 60.8986 496.8 46.6122 518.123 46.6122C529.133 46.6122 539.163 50.6351 545.434 58.6748V47.3056H558.114H558.12ZM545.02 82.1129C545.02 67.8264 534.431 58.2625 519.661 58.2625C504.891 58.2625 494.157 67.8326 494.157 82.1129C494.157 96.3931 504.747 106.107 519.661 106.107C534.575 106.107 545.02 96.2619 545.02 82.1129Z" fill="white"/>
<path d="M581.246 24.5603C581.246 19.7065 585.15 15.821 590.304 15.821C595.457 15.821 599.362 19.5628 599.362 24.2792C599.362 29.2704 595.602 33.1559 590.304 33.1559C585.006 33.1559 581.246 29.4141 581.246 24.5603ZM583.619 47.305H596.995V120.805H583.619V47.305Z" fill="white"/>
<path d="M661.377 116.502C657.335 119.969 651.202 121.63 645.214 121.63C630.306 121.63 621.801 113.447 621.801 98.6106V31.2136H635.177V47.2992H656.356V58.2561H635.177V98.0547C635.177 105.957 639.219 110.398 646.746 110.398C650.65 110.398 654.41 109.149 657.197 106.931L661.377 116.502Z" fill="white"/>
<path d="M729.661 101.109L736.905 109.705C730.358 117.469 720.183 121.63 707.918 121.63C684.09 121.63 668.203 105.957 668.203 84.0489C668.203 62.1413 683.808 46.6055 705.269 46.6055C725.474 46.6055 741.223 60.7483 741.638 82.6621L682.973 94.0314C686.733 104.157 695.935 109.98 708.332 109.98C716.969 109.98 724.219 107.068 729.655 101.103L729.661 101.109ZM681.165 83.3618V84.7486L728.406 75.8718C726.039 65.3334 717.258 57.8435 705.275 57.8435C691.202 57.8435 681.165 67.9696 681.165 83.3618Z" fill="white"/>
<path d="M753.488 84.0556C753.488 62.1418 769.79 46.6122 792.506 46.6122C805.744 46.6122 816.754 52.0219 822.604 62.2854L812.429 68.8009C807.69 61.592 800.446 58.2625 792.362 58.2625C777.868 58.2625 767.003 68.3886 767.003 84.0556C767.003 99.7227 777.874 109.986 792.362 109.986C800.446 109.986 807.69 106.657 812.429 99.4478L822.604 105.826C816.754 116.089 805.744 121.637 792.506 121.637C769.79 121.637 753.488 105.963 753.488 84.0556Z" fill="white"/>
<path d="M908.999 78.5082V120.805H895.623V80.0324C895.623 65.6085 888.38 58.5371 875.694 58.5371C861.483 58.5371 852.281 66.9953 852.281 82.9434V120.805H838.904V17.9015H852.281V57.7C857.855 50.6286 867.05 46.6056 878.336 46.6056C896.314 46.6056 908.993 56.8692 908.993 78.5019L908.999 78.5082Z" fill="white"/>
</g>
<defs>
<filter id="filter0_d_3844_7845" x="0" y="0" width="921" height="172.358" filterUnits="userSpaceOnUse" color-interpolation-filters="sRGB">
<feFlood flood-opacity="0" result="BackgroundImageFix"/>
<feColorMatrix in="SourceAlpha" type="matrix" values="0 0 0 0 0 0 0 0 0 0 0 0 0 0 0 0 0 0 127 0" result="hardAlpha"/>
<feOffset dy="4"/>
<feGaussianBlur stdDeviation="6"/>
<feComposite in2="hardAlpha" operator="out"/>
<feColorMatrix type="matrix" values="0 0 0 0 0 0 0 0 0 0 0 0 0 0 0 0 0 0 0.8 0"/>
<feBlend mode="normal" in2="BackgroundImageFix" result="effect1_dropShadow_3844_7845"/>
<feBlend mode="normal" in="SourceGraphic" in2="effect1_dropShadow_3844_7845" result="shape"/>
</filter>
</defs>
</svg>
