  <svg
      width="213"
      height="35"
      viewBox="0 0 213 35"
      fill="none"
      xmlns="http://www.w3.org/2000/svg"
    >
      <path
        d="M6.68879 20.6363C6.54773 20.5273 6.64425 20.3018 6.82094 20.3283C8.49585 20.5877 12.738 21.1271 15.7642 21.1271C19.1095 21.1271 22.5261 20.6511 24.0986 20.3696C24.2827 20.3372 24.3807 20.573 24.2278 20.6791C22.6895 21.7446 18.8883 24.3678 17.5311 25.2417C17.4821 25.2741 17.4569 25.3242 17.4569 25.3832V33.9941C17.4569 34.0737 17.4019 34.143 17.3247 34.1607L13.9363 34.9948C13.8264 35.0213 13.721 34.9388 13.721 34.8282V25.4303C13.721 25.3699 13.6883 25.3139 13.6364 25.283C13.0617 24.9455 9.67778 22.9368 6.68879 20.6363Z"
        fill="#FEF7EF"
      />
      <path
        d="M16.0934 19.3396C16.0934 19.3396 20.8657 18.6455 23.0276 17.4415C24.9772 16.3553 28.7621 12.5929 29.938 10.2615C32.097 5.97741 32.0332 3.67693 32.097 2.71754C32.1623 1.75815 31.9738 0 31.9738 0C31.9738 0 27.4999 0.256427 21.5309 5.5294C15.0629 11.246 16.0934 19.3382 16.0934 19.3382V19.3396Z"
        fill="#FEF7EF"
      />
      <path
        d="M0 3.53711C0 3.53711 0.573149 7.55889 1.28439 9.47473C1.95257 11.2727 4.28674 15.0999 6.15319 16.3776C9.58317 18.7253 11.5729 18.9463 12.391 19.1173C13.2092 19.2882 14.746 19.3398 14.746 19.3398C14.746 19.3398 15.0637 15.5126 11.2388 9.81221C7.09458 3.63438 0 3.53711 0 3.53711Z"
        fill="#FEF7EF"
      />
      <path
        d="M46.2168 17.9424C46.2168 12.7726 50.0729 9.10889 55.3144 9.10889C60.5559 9.10889 64.3794 12.7726 64.3794 17.9424C64.3794 23.1122 60.5559 26.8083 55.3144 26.8083C50.0729 26.8083 46.2168 23.1107 46.2168 17.9424ZM61.1825 17.9424C61.1825 14.2448 58.6776 11.8574 55.3144 11.8574C51.9513 11.8574 49.4137 14.2463 49.4137 17.9424C49.4137 21.6384 51.9513 24.0598 55.3144 24.0598C58.6776 24.0598 61.1825 21.6384 61.1825 17.9424Z"
        fill="#FEF7EF"
      />
      <path
        d="M78.1587 9.10889V12.1521C77.8944 12.1197 77.6643 12.1197 77.4341 12.1197C74.0383 12.1197 71.9298 14.1814 71.9298 17.9763V26.6137H68.7656V9.27394H71.7977V12.186C72.9187 10.1582 75.094 9.11036 78.1602 9.11036L78.1587 9.10889Z"
        fill="#FEF7EF"
      />
      <path
        d="M82.0464 21.5076V2.33594H85.2106V21.2467C85.2106 23.111 86.1 24.1588 87.913 24.1588C88.507 24.1588 89.0994 23.9952 89.4617 23.8316L89.6265 26.4165C88.9019 26.6788 88.1105 26.8085 87.3518 26.8085C83.9559 26.8085 82.0449 24.8455 82.0449 21.509L82.0464 21.5076Z"
        fill="#FEF7EF"
      />
      <path
        d="M105.224 21.9656L106.937 23.9935C105.388 25.8253 102.982 26.8068 100.08 26.8068C94.4437 26.8068 90.6855 23.1092 90.6855 17.9409C90.6855 12.7726 94.3769 9.10742 99.4535 9.10742C104.233 9.10742 107.959 12.4439 108.057 17.6137L94.1794 20.2959C95.0688 22.6848 97.2456 24.0583 100.178 24.0583C102.221 24.0583 103.936 23.3716 105.222 21.9642L105.224 21.9656ZM93.7517 17.7788V18.106L104.927 16.0118C104.367 13.5256 102.29 11.7586 99.455 11.7586C96.126 11.7586 93.7517 14.1475 93.7517 17.7788Z"
        fill="#FEF7EF"
      />
      <path
        d="M129.186 9.27247V24.2573C129.186 30.3747 126.055 33.1556 120.121 33.1556C116.924 33.1556 113.693 32.2728 111.781 30.5707L113.297 28.1493C114.913 29.5228 117.45 30.4071 120.022 30.4071C124.142 30.4071 126.021 28.5089 126.021 24.5829V23.2094C124.505 25.0088 122.23 25.8916 119.725 25.8916C114.681 25.8916 110.857 22.4888 110.857 17.484C110.857 12.4793 114.681 9.10889 119.725 9.10889C122.329 9.10889 124.702 10.058 126.185 11.9546V9.27247H129.185H129.186ZM126.087 17.484C126.087 14.1136 123.583 11.8574 120.089 11.8574C116.595 11.8574 114.056 14.1151 114.056 17.484C114.056 20.853 116.561 23.1446 120.089 23.1446C123.617 23.1446 126.087 20.822 126.087 17.484Z"
        fill="#FEF7EF"
      />
      <path
        d="M134.656 3.90646C134.656 2.76138 135.58 1.84473 136.799 1.84473C138.018 1.84473 138.942 2.72748 138.942 3.84014C138.942 5.01764 138.052 5.9343 136.799 5.9343C135.546 5.9343 134.656 5.05154 134.656 3.90646ZM135.218 9.27227H138.382V26.6121H135.218V9.27227Z"
        fill="#FEF7EF"
      />
      <path
        d="M153.61 25.5973C152.654 26.4152 151.203 26.8072 149.786 26.8072C146.26 26.8072 144.248 24.8766 144.248 21.3765V5.47656H147.412V9.27139H152.422V11.8563H147.412V21.2454C147.412 23.1096 148.368 24.1574 150.149 24.1574C151.072 24.1574 151.962 23.8627 152.621 23.3395L153.61 25.5973Z"
        fill="#FEF7EF"
      />
      <path
        d="M169.765 21.9656L171.478 23.9935C169.929 25.8253 167.523 26.8068 164.621 26.8068C158.985 26.8068 155.227 23.1092 155.227 17.9409C155.227 12.7726 158.918 9.10742 163.995 9.10742C168.774 9.10742 172.5 12.4439 172.598 17.6137L158.72 20.2959C159.61 22.6848 161.787 24.0583 164.719 24.0583C166.762 24.0583 168.477 23.3716 169.763 21.9642L169.765 21.9656ZM158.293 17.7788V18.106L169.468 16.0118C168.908 13.5256 166.831 11.7586 163.996 11.7586C160.667 11.7586 158.293 14.1475 158.293 17.7788Z"
        fill="#FEF7EF"
      />
      <path
        d="M175.4 17.9424C175.4 12.7726 179.257 9.10889 184.63 9.10889C187.762 9.10889 190.366 10.3851 191.75 12.8064L189.343 14.3435C188.222 12.6429 186.508 11.8574 184.596 11.8574C181.168 11.8574 178.597 14.2463 178.597 17.9424C178.597 21.6384 181.169 24.0598 184.596 24.0598C186.508 24.0598 188.222 23.2743 189.343 21.5736L191.75 23.0783C190.366 25.4996 187.762 26.8083 184.63 26.8083C179.257 26.8083 175.4 23.1107 175.4 17.9424Z"
        fill="#FEF7EF"
      />
      <path
        d="M212.187 16.634V26.6125H209.023V16.9936C209.023 13.5907 207.309 11.9225 204.308 11.9225C200.946 11.9225 198.77 13.9179 198.77 17.6803V26.6125H195.605V2.33594H198.77V11.725C200.088 10.0568 202.263 9.10768 204.933 9.10768C209.186 9.10768 212.185 11.529 212.185 16.6325L212.187 16.634Z"
        fill="#FEF7EF"
      />
    </svg>