<svg preserveAspectRatio="none" width="100%" height="100%" overflow="visible" style="display: block;" viewBox="0 0 1204.47 1355.35" fill="none" xmlns="http://www.w3.org/2000/svg">
<g id="Group 47227">
<g id="Ellipse 1402" filter="url(#filter0_f_0_389)">
<ellipse cx="577.843" cy="659.185" rx="218.638" ry="332.428" fill="var(--fill-0, #132821)"/>
</g>
<g id="Mask Group">
<mask id="mask0_0_389" style="mask-type:alpha" maskUnits="userSpaceOnUse" x="359" y="9" width="631" height="1182">
<path id="Vector 117" d="M384.442 1190.74L989.151 997.317L989.964 416.066L950.95 221.667L620.148 9.77275L359.246 109.888V709.607L384.442 1190.74Z" fill="url(#paint0_linear_0_389)"/>
</mask>
<g mask="url(#mask0_0_389)">
</g>
<mask id="mask1_0_389" style="mask-type:alpha" maskUnits="userSpaceOnUse" x="345" y="51" width="658" height="1041">
<path id="Vector 116" d="M345.429 51.5676C627.835 52.0232 988.092 52.661 1002.16 51.5676V1091.6H345.429V51.5676Z" fill="url(#paint1_linear_0_389)"/>
</mask>
<g mask="url(#mask1_0_389)">
<g id="Group 46881">
<path id="Ellipse 1395" d="M912.393 488.65C912.393 605.952 811.252 704.576 720.577 704.576C629.902 704.576 510.907 657.092 510.907 531.237C510.907 468.87 450.293 393.144 495.447 319.047C541.413 243.618 665.082 260.77 710.824 260.77C801.499 260.77 912.393 371.348 912.393 488.65Z" fill="var(--fill-0, #132821)"/>
<g id="Ellipse 1396" filter="url(#filter1_f_0_389)">
<path d="M904.625 487.245C904.625 613.048 817.687 703.083 739.746 703.083C661.805 703.083 559.52 655.618 559.52 529.814C559.52 467.472 505.392 391.778 544.205 317.711C583.715 242.313 690.018 259.457 729.335 259.457C807.277 259.457 904.625 361.441 904.625 487.245Z" fill="var(--fill-0, #132821)"/>
</g>
<g id="Ellipse 1397" filter="url(#filter2_f_0_389)">
<path d="M904.624 491.056C904.624 632.058 797.44 732.969 701.348 732.969C605.256 732.969 479.152 679.77 479.152 538.768C479.152 468.895 403.467 384.057 451.318 301.042C500.03 216.535 639.215 235.751 687.689 235.751C783.781 235.751 904.624 350.055 904.624 491.056Z" fill="var(--fill-0, #132821)"/>
</g>
<g id="Ellipse 1398" filter="url(#filter3_f_0_389)">
<path d="M893.242 507.329C869.671 681.415 745.04 825.615 632.576 825.615C520.113 825.615 398.534 737.257 398.534 568.154C398.534 484.355 275.961 376.63 331.966 277.07C388.976 175.722 542.362 198.767 599.094 198.767C711.558 198.767 920.547 305.66 893.242 507.329Z" fill="var(--fill-0, #132821)"/>
</g>
<g id="Ellipse 1399" filter="url(#filter4_f_0_389)">
<path d="M847.727 565.982C847.727 748.062 702.829 904.813 592.873 904.813C482.917 904.813 364.048 809.675 364.048 627.595C364.048 537.365 322.085 427.81 376.84 320.61C432.58 211.484 582.547 236.298 638.014 236.298C747.97 236.298 847.727 383.902 847.727 565.982Z" fill="var(--fill-0, #132821)"/>
</g>
<g id="Ellipse 1400" filter="url(#filter5_f_0_389)">
<path d="M803.837 636.848C803.837 825.011 655.635 986.999 543.172 986.999C430.709 986.999 309.13 888.682 309.13 700.519C309.13 607.276 266.209 494.06 322.214 383.279C379.224 270.507 532.61 296.15 589.343 296.15C701.806 296.15 803.837 448.686 803.837 636.848Z" fill="var(--fill-0, #132821)"/>
</g>
<g id="Ellipse 1401" filter="url(#filter6_f_0_389)">
<path d="M821.722 495.325C821.722 659.967 673.519 801.707 561.056 801.707C448.593 801.707 327.014 715.679 327.014 551.037C327.014 469.449 297.098 370.385 353.102 273.452C410.113 174.777 563.499 197.214 620.231 197.214C732.695 197.214 821.722 330.683 821.722 495.325Z" fill="var(--fill-0, #132821)"/>
</g>
</g>
</g>
</g>
<g id="Vector 118" filter="url(#filter7_f_0_389)">
<path d="M445.968 376.829C480.389 363.034 561.912 382.509 647.964 409.287H759.381C856.302 409.287 830.034 563.462 773.873 691.671C717.713 819.879 720.431 816.634 626.227 813.388C532.023 810.142 579.125 872.623 538.364 949.711C497.602 1026.8 570.657 865.489 498.192 778.664C425.727 691.839 411.551 749.283 471.334 617.017C531.117 484.751 499.409 490.171 464.991 486.114C430.573 482.057 430.568 521.006 398.865 516.949C367.161 512.892 381.654 495.851 398.865 442.296C416.075 388.74 411.548 390.623 445.968 376.829Z" fill="url(#paint2_linear_0_389)"/>
</g>
<g id="Mask Group_2">
<mask id="mask2_0_389" style="mask-type:alpha" maskUnits="userSpaceOnUse" x="55" y="145" width="1009" height="731">
<path id="Vector 117_2" d="M1063.58 720.244L816.25 145.346L344.207 214.33L189.51 276.455L55.1822 629.947L175.637 875.971L670.346 803.398L1063.58 720.244Z" fill="url(#paint3_linear_0_389)"/>
</mask>
<g mask="url(#mask2_0_389)">
<g id="Mask Group_3">
<mask id="mask3_0_389" style="mask-type:alpha" maskUnits="userSpaceOnUse" x="41" y="146" width="973" height="725">
<path id="Vector 116_2" d="M129.533 870.691C88.9189 591.22 44.7053 286.168 41.762 272.385L925.695 146.528L1013.47 744.833L129.533 870.691Z" fill="url(#paint4_linear_0_389)"/>
</mask>
<g mask="url(#mask3_0_389)">
<g id="Group 46881_2">
<path id="Ellipse 1395_2" d="M407.791 282.851C504.553 268.656 600.589 356.791 613.75 446.506C626.911 536.221 605.013 659.701 501.195 674.932C449.748 682.479 396.08 751.615 328.403 715.905C259.51 679.554 255.708 555.119 249.069 509.862C235.908 420.147 311.028 297.046 407.791 282.851Z" fill="var(--fill-0, #132821)"/>
<g id="Ellipse 1396_2" filter="url(#filter8_f_0_389)">
<path d="M407.759 290.705C511.534 275.481 597.201 342.276 607.419 411.928C617.637 481.58 591.892 578.729 488.117 593.953C436.691 601.497 381.346 659.029 315.16 633.307C247.784 607.123 247.991 510.052 242.836 474.916C232.618 405.264 303.983 305.928 407.759 290.705Z" fill="var(--fill-0, #132821)"/>
</g>
<g id="Ellipse 1397_2" filter="url(#filter9_f_0_389)">
<path d="M410.901 290.245C527.213 273.182 624.528 356.902 637.145 442.907C649.762 528.912 622.436 648.216 506.123 665.279C448.485 673.734 388.439 751.742 313.677 718.959C237.571 685.587 235.147 558.687 228.783 515.302C216.166 429.297 294.589 307.308 410.901 290.245Z" fill="var(--fill-0, #132821)"/>
</g>
<g id="Ellipse 1398_2" filter="url(#filter10_f_0_389)">
<path d="M428.49 316.36C575.515 318.614 712.556 424.476 728.879 535.748C745.203 647.021 689.963 778.005 550.47 798.468C481.344 808.609 410.273 942.92 320.017 899.557C228.139 855.415 206.608 650.971 198.374 594.839C182.05 483.567 258.17 313.748 428.49 316.36Z" fill="var(--fill-0, #132821)"/>
</g>
<g id="Ellipse 1399_2" filter="url(#filter11_f_0_389)">
<path d="M470.241 339.043C620.439 317.009 781.502 439.831 797.462 548.622C813.422 657.414 752.195 786.537 601.997 808.571C527.567 819.49 443.286 874.266 346.908 833.063C248.8 791.12 171.812 571.98 163.761 517.1C147.801 408.308 320.043 361.077 470.241 339.043Z" fill="var(--fill-0, #132821)"/>
</g>
<g id="Ellipse 1400_2" filter="url(#filter12_f_0_389)">
<path d="M545.799 372.319C701.014 349.549 856.149 476.579 872.473 587.852C888.796 699.124 825.341 831.313 670.126 854.083C593.209 865.367 456.279 731.679 356.766 689.674C255.466 646.914 254.355 492.049 246.121 435.917C229.797 324.645 390.583 395.09 545.799 372.319Z" fill="var(--fill-0, #132821)"/>
</g>
<g id="Ellipse 1401_2" filter="url(#filter13_f_0_389)">
<path d="M426.457 371.751C562.271 351.827 700.703 481.308 717.027 592.58C733.35 703.852 680.033 834.554 544.219 854.478C476.917 864.351 399.541 905.938 311.452 862.257C221.78 817.792 218.025 663.315 209.79 607.183C193.467 495.911 290.644 391.675 426.457 371.751Z" fill="var(--fill-0, #132821)"/>
</g>
</g>
</g>
</g>
</g>
</g>
<g id="Mask Group_4">
<mask id="mask4_0_389" style="mask-type:alpha" maskUnits="userSpaceOnUse" x="0" y="0" width="1205" height="1356">
<path id="Vector 116_3" d="M1204.47 1045.6C943.298 1146.29 417.818 1349.22 405.246 1355.35L-2.78543e-05 309.757L799.221 1.00137e-05L1204.47 1045.6Z" fill="url(#paint5_linear_0_389)"/>
</mask>
<g mask="url(#mask4_0_389)">
<g id="Group 46881_3">
<path id="Ellipse 1395_3" d="M269.821 902.412C251.487 783.878 279.157 649.104 362.956 616.625C446.755 584.147 575.229 589.263 624.268 715.792C648.569 778.493 703.816 754.793 690.958 845.461C677.868 937.757 556.894 964.81 514.621 981.194C430.822 1013.67 288.154 1020.95 269.821 902.412Z" fill="var(--fill-0, #82A239)"/>
<g id="Ellipse 1396_3" filter="url(#filter14_f_0_389)">
<path d="M269.443 886.838C259.711 685.692 273.793 652.911 345.824 624.994C417.855 597.076 530.877 608.159 579.896 734.635C604.188 797.311 652.847 774.401 645.837 862.767C638.701 952.72 531.732 974.353 495.396 988.436C423.365 1016.35 269.443 988.047 269.443 886.838Z" fill="var(--fill-0, #82A239)"/>
</g>
<g id="Ellipse 1397_3" filter="url(#filter15_f_0_389)">
<path d="M276.062 897.212C236.925 667.387 323.681 531.934 412.486 497.516C501.292 463.097 595.738 555.091 650.679 696.847C677.905 767.094 729.67 693.076 717.794 793.675C705.704 896.081 564.574 945.877 519.776 963.24C430.971 997.658 331.003 1038.97 276.062 897.212Z" fill="var(--fill-0, #82A239)"/>
</g>
<g id="Ellipse 1398_3" filter="url(#filter16_f_0_389)">
<path d="M280.235 876.776C242.615 674.702 294.734 440.265 398.669 399.982C502.604 359.7 647.838 468.422 713.729 638.43C746.381 722.677 850.395 654.872 837.431 775.025C824.234 897.336 673.5 929.108 621.07 949.429C517.135 989.711 317.856 1078.85 280.235 876.776Z" fill="var(--fill-0, #82A239)"/>
</g>
<g id="Ellipse 1399_3" filter="url(#filter17_f_0_389)">
<path d="M279.194 722.656C279.194 408.922 285.675 402.791 387.293 363.407C488.912 324.022 651.498 383.264 722.445 566.318C757.603 657.03 748.06 686.301 739.226 813.687C730.234 943.362 553.967 976.696 502.706 996.563C401.088 1035.95 279.194 904.596 279.194 722.656Z" fill="var(--fill-0, #82A239)"/>
</g>
<g id="Ellipse 1400_3" filter="url(#filter18_f_0_389)">
<path d="M312.399 714.539C239.081 525.37 312.927 309.432 416.862 269.149C520.798 228.867 671.466 284.162 744.783 473.331C781.115 567.074 846.569 724.425 837.978 855.859C829.232 989.654 569.357 911.127 516.927 931.448C412.991 971.73 385.716 903.709 312.399 714.539Z" fill="var(--fill-0, #82A239)"/>
</g>
<g id="Ellipse 1401_3" filter="url(#filter19_f_0_389)">
<path d="M351.019 863.226C286.867 697.702 368.603 502.121 472.538 461.839C576.473 421.556 722.353 464.496 786.505 630.019C818.296 712.044 823.989 644.683 810.001 762.196C795.763 881.819 645.265 914.202 592.835 934.523C488.9 974.805 415.172 1028.75 351.019 863.226Z" fill="var(--fill-0, #82A239)"/>
</g>
</g>
</g>
</g>
<g id="Ellipse 1403" opacity="0.6" filter="url(#filter20_f_0_389)">
<path d="M746.089 634.586C746.089 778.976 615.849 945.61 542.406 945.61C468.964 945.61 301.767 1052.89 448.476 695.889C448.476 551.499 305.989 380.357 542.406 422.728C615.849 422.728 535.019 573.283 746.089 634.586Z" fill="var(--fill-0, #132821)"/>
</g>
</g>
<defs>
<filter id="filter0_f_0_389" x="241.61" y="209.163" width="672.466" height="900.045" filterUnits="userSpaceOnUse" color-interpolation-filters="sRGB">
<feFlood flood-opacity="0" result="BackgroundImageFix"/>
<feBlend mode="normal" in="SourceGraphic" in2="BackgroundImageFix" result="shape"/>
<feGaussianBlur stdDeviation="58.7975" result="effect1_foregroundBlur_0_389"/>
</filter>
<filter id="filter1_f_0_389" x="525.488" y="253.078" width="383.841" height="454.709" filterUnits="userSpaceOnUse" color-interpolation-filters="sRGB">
<feFlood flood-opacity="0" result="BackgroundImageFix"/>
<feBlend mode="normal" in="SourceGraphic" in2="BackgroundImageFix" result="shape"/>
<feGaussianBlur stdDeviation="2.3519" result="effect1_foregroundBlur_0_389"/>
</filter>
<filter id="filter2_f_0_389" x="418.995" y="217.41" width="502.092" height="532.022" filterUnits="userSpaceOnUse" color-interpolation-filters="sRGB">
<feFlood flood-opacity="0" result="BackgroundImageFix"/>
<feBlend mode="normal" in="SourceGraphic" in2="BackgroundImageFix" result="shape"/>
<feGaussianBlur stdDeviation="8.23164" result="effect1_foregroundBlur_0_389"/>
</filter>
<filter id="filter3_f_0_389" x="293.792" y="172.996" width="625.403" height="676.138" filterUnits="userSpaceOnUse" color-interpolation-filters="sRGB">
<feFlood flood-opacity="0" result="BackgroundImageFix"/>
<feBlend mode="normal" in="SourceGraphic" in2="BackgroundImageFix" result="shape"/>
<feGaussianBlur stdDeviation="11.7595" result="effect1_foregroundBlur_0_389"/>
</filter>
<filter id="filter4_f_0_389" x="285.178" y="170.371" width="626.05" height="797.943" filterUnits="userSpaceOnUse" color-interpolation-filters="sRGB">
<feFlood flood-opacity="0" result="BackgroundImageFix"/>
<feBlend mode="normal" in="SourceGraphic" in2="BackgroundImageFix" result="shape"/>
<feGaussianBlur stdDeviation="31.7506" result="effect1_foregroundBlur_0_389"/>
</filter>
<filter id="filter5_f_0_389" x="135.834" y="136.067" width="825.581" height="1008.51" filterUnits="userSpaceOnUse" color-interpolation-filters="sRGB">
<feFlood flood-opacity="0" result="BackgroundImageFix"/>
<feBlend mode="normal" in="SourceGraphic" in2="BackgroundImageFix" result="shape"/>
<feGaussianBlur stdDeviation="78.7886" result="effect1_foregroundBlur_0_389"/>
</filter>
<filter id="filter6_f_0_389" x="246.124" y="122.112" width="648.507" height="752.503" filterUnits="userSpaceOnUse" color-interpolation-filters="sRGB">
<feFlood flood-opacity="0" result="BackgroundImageFix"/>
<feBlend mode="normal" in="SourceGraphic" in2="BackgroundImageFix" result="shape"/>
<feGaussianBlur stdDeviation="36.4544" result="effect1_foregroundBlur_0_389"/>
</filter>
<filter id="filter7_f_0_389" x="300.171" y="292.309" width="603.91" height="757.654" filterUnits="userSpaceOnUse" color-interpolation-filters="sRGB">
<feFlood flood-opacity="0" result="BackgroundImageFix"/>
<feBlend mode="normal" in="SourceGraphic" in2="BackgroundImageFix" result="shape"/>
<feGaussianBlur stdDeviation="39.9823" result="effect1_foregroundBlur_0_389"/>
</filter>
<filter id="filter8_f_0_389" x="237.16" y="283.813" width="377.032" height="360.772" filterUnits="userSpaceOnUse" color-interpolation-filters="sRGB">
<feFlood flood-opacity="0" result="BackgroundImageFix"/>
<feBlend mode="normal" in="SourceGraphic" in2="BackgroundImageFix" result="shape"/>
<feGaussianBlur stdDeviation="2.3519" result="effect1_foregroundBlur_0_389"/>
</filter>
<filter id="filter9_f_0_389" x="210.99" y="271.551" width="445.438" height="471.872" filterUnits="userSpaceOnUse" color-interpolation-filters="sRGB">
<feFlood flood-opacity="0" result="BackgroundImageFix"/>
<feBlend mode="normal" in="SourceGraphic" in2="BackgroundImageFix" result="shape"/>
<feGaussianBlur stdDeviation="8.23164" result="effect1_foregroundBlur_0_389"/>
</filter>
<filter id="filter10_f_0_389" x="172.694" y="292.811" width="582.478" height="638.859" filterUnits="userSpaceOnUse" color-interpolation-filters="sRGB">
<feFlood flood-opacity="0" result="BackgroundImageFix"/>
<feBlend mode="normal" in="SourceGraphic" in2="BackgroundImageFix" result="shape"/>
<feGaussianBlur stdDeviation="11.7595" result="effect1_foregroundBlur_0_389"/>
</filter>
<filter id="filter11_f_0_389" x="99.2277" y="272.954" width="764.198" height="638.749" filterUnits="userSpaceOnUse" color-interpolation-filters="sRGB">
<feFlood flood-opacity="0" result="BackgroundImageFix"/>
<feBlend mode="normal" in="SourceGraphic" in2="BackgroundImageFix" result="shape"/>
<feGaussianBlur stdDeviation="31.7506" result="effect1_foregroundBlur_0_389"/>
</filter>
<filter id="filter12_f_0_389" x="87.3965" y="212.069" width="945.146" height="800.265" filterUnits="userSpaceOnUse" color-interpolation-filters="sRGB">
<feFlood flood-opacity="0" result="BackgroundImageFix"/>
<feBlend mode="normal" in="SourceGraphic" in2="BackgroundImageFix" result="shape"/>
<feGaussianBlur stdDeviation="78.7886" result="effect1_foregroundBlur_0_389"/>
</filter>
<filter id="filter13_f_0_389" x="135.092" y="296.797" width="657.693" height="657.961" filterUnits="userSpaceOnUse" color-interpolation-filters="sRGB">
<feFlood flood-opacity="0" result="BackgroundImageFix"/>
<feBlend mode="normal" in="SourceGraphic" in2="BackgroundImageFix" result="shape"/>
<feGaussianBlur stdDeviation="36.4544" result="effect1_foregroundBlur_0_389"/>
</filter>
<filter id="filter14_f_0_389" x="261.997" y="607.689" width="389.227" height="395.606" filterUnits="userSpaceOnUse" color-interpolation-filters="sRGB">
<feFlood flood-opacity="0" result="BackgroundImageFix"/>
<feBlend mode="normal" in="SourceGraphic" in2="BackgroundImageFix" result="shape"/>
<feGaussianBlur stdDeviation="2.3519" result="effect1_foregroundBlur_0_389"/>
</filter>
<filter id="filter15_f_0_389" x="249.946" y="473.818" width="486.053" height="539.271" filterUnits="userSpaceOnUse" color-interpolation-filters="sRGB">
<feFlood flood-opacity="0" result="BackgroundImageFix"/>
<feBlend mode="normal" in="SourceGraphic" in2="BackgroundImageFix" result="shape"/>
<feGaussianBlur stdDeviation="8.23164" result="effect1_foregroundBlur_0_389"/>
</filter>
<filter id="filter16_f_0_389" x="244.513" y="368.065" width="617.549" height="659.544" filterUnits="userSpaceOnUse" color-interpolation-filters="sRGB">
<feFlood flood-opacity="0" result="BackgroundImageFix"/>
<feBlend mode="normal" in="SourceGraphic" in2="BackgroundImageFix" result="shape"/>
<feGaussianBlur stdDeviation="11.7595" result="effect1_foregroundBlur_0_389"/>
</filter>
<filter id="filter17_f_0_389" x="215.692" y="288.303" width="595.256" height="778.772" filterUnits="userSpaceOnUse" color-interpolation-filters="sRGB">
<feFlood flood-opacity="0" result="BackgroundImageFix"/>
<feBlend mode="normal" in="SourceGraphic" in2="BackgroundImageFix" result="shape"/>
<feGaussianBlur stdDeviation="31.7506" result="effect1_foregroundBlur_0_389"/>
</filter>
<filter id="filter18_f_0_389" x="125.278" y="99.1763" width="871.046" height="1001" filterUnits="userSpaceOnUse" color-interpolation-filters="sRGB">
<feFlood flood-opacity="0" result="BackgroundImageFix"/>
<feBlend mode="normal" in="SourceGraphic" in2="BackgroundImageFix" result="shape"/>
<feGaussianBlur stdDeviation="78.7886" result="effect1_foregroundBlur_0_389"/>
</filter>
<filter id="filter19_f_0_389" x="255.41" y="374.821" width="634.69" height="674.279" filterUnits="userSpaceOnUse" color-interpolation-filters="sRGB">
<feFlood flood-opacity="0" result="BackgroundImageFix"/>
<feBlend mode="normal" in="SourceGraphic" in2="BackgroundImageFix" result="shape"/>
<feGaussianBlur stdDeviation="36.4544" result="effect1_foregroundBlur_0_389"/>
</filter>
<filter id="filter20_f_0_389" x="291.311" y="317.385" width="553.558" height="742.123" filterUnits="userSpaceOnUse" color-interpolation-filters="sRGB">
<feFlood flood-opacity="0" result="BackgroundImageFix"/>
<feBlend mode="normal" in="SourceGraphic" in2="BackgroundImageFix" result="shape"/>
<feGaussianBlur stdDeviation="49.3899" result="effect1_foregroundBlur_0_389"/>
</filter>
<linearGradient id="paint0_linear_0_389" x1="673.792" y1="486.049" x2="464.314" y2="230.563" gradientUnits="userSpaceOnUse">
<stop stop-color="#C4C4C4"/>
<stop offset="1" stop-color="#C4C4C4" stop-opacity="0"/>
</linearGradient>
<linearGradient id="paint1_linear_0_389" x1="898.12" y1="486.409" x2="432.96" y2="501.222" gradientUnits="userSpaceOnUse">
<stop stop-color="#C4C4C4"/>
<stop offset="1" stop-color="#C4C4C4" stop-opacity="0"/>
</linearGradient>
<linearGradient id="paint2_linear_0_389" x1="364.064" y1="437.027" x2="909.634" y2="491.817" gradientUnits="userSpaceOnUse">
<stop offset="0.26194" stop-color="#013322"/>
<stop offset="0.424264" stop-color="#01462F"/>
<stop offset="1" stop-color="#028A5C"/>
</linearGradient>
<linearGradient id="paint3_linear_0_389" x1="585.159" y1="403.974" x2="271.874" y2="476.544" gradientUnits="userSpaceOnUse">
<stop stop-color="#C4C4C4"/>
<stop offset="0.943414" stop-color="#C4C4C4" stop-opacity="0"/>
</linearGradient>
<linearGradient id="paint4_linear_0_389" x1="421.793" y1="387.718" x2="437.107" y2="760.233" gradientUnits="userSpaceOnUse">
<stop stop-color="#C4C4C4"/>
<stop offset="1" stop-color="#C4C4C4" stop-opacity="0"/>
</linearGradient>
<linearGradient id="paint5_linear_0_389" x1="283.885" y1="899.554" x2="719.111" y2="421.651" gradientUnits="userSpaceOnUse">
<stop stop-color="#C4C4C4"/>
<stop offset="1" stop-color="#C4C4C4" stop-opacity="0"/>
</linearGradient>
</defs>
</svg>
