<svg preserveAspectRatio="none" width="100%" height="100%" overflow="visible" style="display: block;" viewBox="0 0 1204.47 1355.35" fill="none" xmlns="http://www.w3.org/2000/svg">
<g id="Group 47228" opacity="0.5">
<g id="Ellipse 1402" filter="url(#filter0_f_0_470)">
<ellipse cx="577.841" cy="659.186" rx="218.638" ry="332.428" fill="var(--fill-0, #132821)"/>
</g>
<g id="Mask Group">
<mask id="mask0_0_470" style="mask-type:alpha" maskUnits="userSpaceOnUse" x="359" y="9" width="631" height="1182">
<path id="Vector 117" d="M384.44 1190.74L989.15 997.316L989.962 416.065L950.949 221.666L620.147 9.77184L359.244 109.887L359.244 709.606L384.44 1190.74Z" fill="url(#paint0_linear_0_470)"/>
</mask>
<g mask="url(#mask0_0_470)">
</g>
<mask id="mask1_0_470" style="mask-type:alpha" maskUnits="userSpaceOnUse" x="345" y="51" width="658" height="1041">
<path id="Vector 116" d="M345.428 51.5667C627.834 52.0223 988.09 52.6601 1002.15 51.5667V1091.6H345.428L345.428 51.5667Z" fill="url(#paint1_linear_0_470)"/>
</mask>
<g mask="url(#mask1_0_470)">
<g id="Group 46881">
<path id="Ellipse 1395" d="M912.392 488.649C912.392 605.951 811.251 704.575 720.575 704.575C629.9 704.575 510.906 657.091 510.906 531.236C510.906 468.869 450.292 393.143 495.446 319.046C541.411 243.617 665.081 260.769 710.822 260.769C801.497 260.769 912.392 371.347 912.392 488.649Z" fill="var(--fill-0, #132821)"/>
<g id="Ellipse 1396" filter="url(#filter1_f_0_470)">
<path d="M904.623 487.244C904.623 613.047 817.686 703.082 739.744 703.082C661.803 703.082 559.519 655.617 559.519 529.813C559.519 467.471 505.39 391.777 544.203 317.71C583.714 242.312 690.016 259.456 729.334 259.456C807.275 259.456 904.623 361.44 904.623 487.244Z" fill="var(--fill-0, #132821)"/>
</g>
<g id="Ellipse 1397" filter="url(#filter2_f_0_470)">
<path d="M904.622 491.055C904.622 632.057 797.439 732.968 701.347 732.968C605.255 732.968 479.151 679.769 479.151 538.768C479.151 468.895 403.465 384.056 451.317 301.041C500.028 216.534 639.214 235.75 687.688 235.75C783.78 235.75 904.622 350.054 904.622 491.055Z" fill="var(--fill-0, #132821)"/>
</g>
<g id="Ellipse 1398" filter="url(#filter3_f_0_470)">
<path d="M893.24 507.328C869.67 681.414 745.038 825.614 632.575 825.614C520.111 825.614 398.532 737.256 398.532 568.153C398.532 484.354 275.96 376.629 331.964 277.069C388.974 175.721 542.361 198.766 599.093 198.766C711.556 198.766 920.546 305.659 893.24 507.328Z" fill="var(--fill-0, #132821)"/>
</g>
<g id="Ellipse 1399" filter="url(#filter4_f_0_470)">
<path d="M847.726 565.981C847.726 748.061 702.827 904.812 592.871 904.812C482.915 904.812 364.046 809.674 364.046 627.594C364.046 537.364 322.083 427.809 376.839 320.609C432.578 211.483 582.545 236.297 638.013 236.297C747.969 236.297 847.726 383.902 847.726 565.981Z" fill="var(--fill-0, #132821)"/>
</g>
<g id="Ellipse 1400" filter="url(#filter5_f_0_470)">
<path d="M803.836 636.848C803.836 825.01 655.634 986.998 543.17 986.998C430.707 986.998 309.128 888.681 309.128 700.518C309.128 607.275 266.208 494.059 322.212 383.278C379.223 270.506 532.609 296.149 589.341 296.149C701.804 296.149 803.836 448.685 803.836 636.848Z" fill="var(--fill-0, #132821)"/>
</g>
<g id="Ellipse 1401" filter="url(#filter6_f_0_470)">
<path d="M821.72 495.324C821.72 659.967 673.518 801.706 561.055 801.706C448.591 801.706 327.012 715.679 327.012 551.036C327.012 469.448 297.097 370.385 353.101 273.451C410.111 174.776 563.498 197.213 620.23 197.213C732.693 197.213 821.72 330.682 821.72 495.324Z" fill="var(--fill-0, #132821)"/>
</g>
</g>
</g>
</g>
<g id="Vector 118" filter="url(#filter7_f_0_470)">
<path d="M445.967 376.829C480.387 363.034 561.91 382.509 647.962 409.287H759.379C856.3 409.287 830.032 563.462 773.872 691.671C717.712 819.88 720.429 816.634 626.225 813.388C532.021 810.142 579.123 872.624 538.362 949.711C497.601 1026.8 570.655 865.49 498.19 778.665C425.726 691.84 411.549 749.284 471.332 617.018C531.115 484.752 499.408 490.171 464.99 486.114C430.572 482.057 430.566 521.006 398.863 516.949C367.16 512.892 381.653 495.851 398.863 442.296C416.073 388.74 411.546 390.624 445.967 376.829Z" fill="url(#paint2_linear_0_470)"/>
</g>
<g id="Mask Group_2">
<mask id="mask2_0_470" style="mask-type:alpha" maskUnits="userSpaceOnUse" x="55" y="145" width="1009" height="731">
<path id="Vector 117_2" d="M1063.58 720.243L816.248 145.344L344.205 214.328L189.508 276.454L55.1805 629.945L175.635 875.97L670.344 803.396L1063.58 720.243Z" fill="url(#paint3_linear_0_470)"/>
</mask>
<g mask="url(#mask2_0_470)">
<g id="Mask Group_3">
<mask id="mask3_0_470" style="mask-type:alpha" maskUnits="userSpaceOnUse" x="41" y="146" width="973" height="725">
<path id="Vector 116_2" d="M129.532 870.689C88.9171 591.218 44.7036 286.167 41.7603 272.384L925.693 146.526L1013.46 744.832L129.532 870.689Z" fill="url(#paint4_linear_0_470)"/>
</mask>
<g mask="url(#mask3_0_470)">
<g id="Group 46881_2">
<path id="Ellipse 1395_2" d="M407.789 282.849C504.552 268.654 600.587 356.789 613.748 446.504C626.91 536.219 605.012 659.7 501.194 674.93C449.747 682.477 396.078 751.613 328.401 715.904C259.508 679.553 255.706 555.117 249.067 509.861C235.906 420.146 311.027 297.044 407.789 282.849Z" fill="var(--fill-0, #132821)"/>
<g id="Ellipse 1396_2" filter="url(#filter8_f_0_470)">
<path d="M407.757 290.703C511.533 275.479 597.199 342.275 607.417 411.927C617.635 481.578 591.891 578.727 488.115 593.951C436.689 601.495 381.345 659.027 315.158 633.305C247.782 607.121 247.989 510.05 242.835 474.914C232.617 405.263 303.981 305.927 407.757 290.703Z" fill="var(--fill-0, #132821)"/>
</g>
<g id="Ellipse 1397_2" filter="url(#filter9_f_0_470)">
<path d="M410.899 290.243C527.212 273.18 624.527 356.9 637.143 442.905C649.76 528.91 622.434 648.214 506.122 665.277C448.483 673.733 388.437 751.74 313.675 718.957C237.57 685.586 235.145 558.686 228.781 515.3C216.164 429.295 294.587 307.306 410.899 290.243Z" fill="var(--fill-0, #132821)"/>
</g>
<g id="Ellipse 1398_2" filter="url(#filter10_f_0_470)">
<path d="M428.489 316.358C575.514 318.613 712.554 424.475 728.878 535.747C745.201 647.019 689.962 778.003 550.468 798.467C481.342 808.608 410.271 942.918 320.015 899.555C228.137 855.413 206.606 650.969 198.372 594.838C182.048 483.565 258.169 313.747 428.489 316.358Z" fill="var(--fill-0, #132821)"/>
</g>
<g id="Ellipse 1399_2" filter="url(#filter11_f_0_470)">
<path d="M470.24 339.042C620.438 317.008 781.501 439.829 797.46 548.621C813.42 657.413 752.194 786.535 601.996 808.569C527.565 819.488 443.284 874.265 346.907 833.062C248.798 791.118 171.81 571.978 163.759 517.098C147.799 408.306 320.042 361.076 470.24 339.042Z" fill="var(--fill-0, #132821)"/>
</g>
<g id="Ellipse 1400_2" filter="url(#filter12_f_0_470)">
<path d="M545.797 372.318C701.013 349.548 856.147 476.578 872.471 587.85C888.795 699.123 825.34 831.312 670.124 854.082C593.207 865.366 456.277 731.677 356.765 689.672C255.464 646.912 254.353 492.047 246.119 435.916C229.795 324.644 390.581 395.088 545.797 372.318Z" fill="var(--fill-0, #132821)"/>
</g>
<g id="Ellipse 1401_2" filter="url(#filter13_f_0_470)">
<path d="M426.456 371.75C562.269 351.826 700.701 481.306 717.025 592.578C733.348 703.851 680.031 834.553 544.217 854.477C476.915 864.35 399.54 905.937 311.45 862.256C221.778 817.79 218.023 663.313 209.789 607.181C193.465 495.909 290.642 391.673 426.456 371.75Z" fill="var(--fill-0, #132821)"/>
</g>
</g>
</g>
</g>
</g>
</g>
<g id="Mask Group_4">
<mask id="mask4_0_470" style="mask-type:alpha" maskUnits="userSpaceOnUse" x="0" y="0" width="1205" height="1356">
<path id="Vector 116_3" d="M1204.47 1045.6C943.298 1146.29 417.818 1349.22 405.246 1355.35L-2.78543e-05 309.757L799.221 1.00137e-05L1204.47 1045.6Z" fill="url(#paint5_linear_0_470)"/>
</mask>
<g mask="url(#mask4_0_470)">
<g id="Group 46881_3">
<path id="Ellipse 1395_3" d="M269.821 902.412C251.487 783.878 279.157 649.104 362.956 616.625C446.755 584.147 575.229 589.263 624.268 715.792C648.569 778.493 703.816 754.793 690.958 845.461C677.868 937.757 556.894 964.81 514.621 981.194C430.822 1013.67 288.154 1020.95 269.821 902.412Z" fill="var(--fill-0, #82A239)"/>
<g id="Ellipse 1396_3" filter="url(#filter14_f_0_470)">
<path d="M269.443 886.838C259.711 685.692 273.793 652.911 345.824 624.994C417.855 597.076 530.877 608.159 579.896 734.635C604.188 797.311 652.847 774.401 645.837 862.767C638.701 952.72 531.732 974.353 495.396 988.436C423.365 1016.35 269.443 988.047 269.443 886.838Z" fill="var(--fill-0, #82A239)"/>
</g>
<g id="Ellipse 1397_3" filter="url(#filter15_f_0_470)">
<path d="M276.062 897.212C236.925 667.387 323.681 531.934 412.486 497.516C501.292 463.097 595.738 555.091 650.679 696.847C677.905 767.094 729.67 693.076 717.794 793.675C705.704 896.081 564.574 945.877 519.776 963.24C430.971 997.658 331.003 1038.97 276.062 897.212Z" fill="var(--fill-0, #82A239)"/>
</g>
<g id="Ellipse 1398_3" filter="url(#filter16_f_0_470)">
<path d="M280.235 876.776C242.615 674.702 294.734 440.265 398.669 399.982C502.604 359.7 647.838 468.422 713.729 638.43C746.381 722.677 850.395 654.872 837.431 775.025C824.234 897.336 673.5 929.108 621.07 949.429C517.135 989.711 317.856 1078.85 280.235 876.776Z" fill="var(--fill-0, #82A239)"/>
</g>
<g id="Ellipse 1399_3" filter="url(#filter17_f_0_470)">
<path d="M279.194 722.656C279.194 408.922 285.675 402.791 387.293 363.407C488.912 324.022 651.498 383.264 722.445 566.318C757.603 657.03 748.06 686.301 739.226 813.687C730.234 943.362 553.967 976.696 502.706 996.563C401.088 1035.95 279.194 904.596 279.194 722.656Z" fill="var(--fill-0, #82A239)"/>
</g>
<g id="Ellipse 1400_3" filter="url(#filter18_f_0_470)">
<path d="M312.399 714.539C239.081 525.37 312.927 309.432 416.862 269.149C520.798 228.867 671.466 284.162 744.783 473.331C781.115 567.074 846.569 724.425 837.978 855.859C829.232 989.654 569.357 911.127 516.927 931.448C412.991 971.73 385.716 903.709 312.399 714.539Z" fill="var(--fill-0, #82A239)"/>
</g>
<g id="Ellipse 1401_3" filter="url(#filter19_f_0_470)">
<path d="M351.019 863.226C286.867 697.702 368.603 502.121 472.538 461.839C576.473 421.556 722.353 464.496 786.505 630.019C818.296 712.044 823.989 644.683 810.001 762.196C795.763 881.819 645.265 914.202 592.835 934.523C488.9 974.805 415.172 1028.75 351.019 863.226Z" fill="var(--fill-0, #82A239)"/>
</g>
</g>
</g>
</g>
<g id="Ellipse 1403" opacity="0.6" filter="url(#filter20_f_0_470)">
<path d="M746.087 634.586C746.087 778.976 615.847 945.61 542.405 945.61C468.962 945.61 301.765 1052.89 448.474 695.889C448.474 551.499 305.987 380.357 542.405 422.728C615.847 422.728 535.017 573.283 746.087 634.586Z" fill="var(--fill-0, #132821)"/>
</g>
</g>
<defs>
<filter id="filter0_f_0_470" x="241.608" y="209.163" width="672.466" height="900.045" filterUnits="userSpaceOnUse" color-interpolation-filters="sRGB">
<feFlood flood-opacity="0" result="BackgroundImageFix"/>
<feBlend mode="normal" in="SourceGraphic" in2="BackgroundImageFix" result="shape"/>
<feGaussianBlur stdDeviation="58.7975" result="effect1_foregroundBlur_0_470"/>
</filter>
<filter id="filter1_f_0_470" x="525.487" y="253.077" width="383.841" height="454.709" filterUnits="userSpaceOnUse" color-interpolation-filters="sRGB">
<feFlood flood-opacity="0" result="BackgroundImageFix"/>
<feBlend mode="normal" in="SourceGraphic" in2="BackgroundImageFix" result="shape"/>
<feGaussianBlur stdDeviation="2.3519" result="effect1_foregroundBlur_0_470"/>
</filter>
<filter id="filter2_f_0_470" x="418.993" y="217.409" width="502.092" height="532.022" filterUnits="userSpaceOnUse" color-interpolation-filters="sRGB">
<feFlood flood-opacity="0" result="BackgroundImageFix"/>
<feBlend mode="normal" in="SourceGraphic" in2="BackgroundImageFix" result="shape"/>
<feGaussianBlur stdDeviation="8.23164" result="effect1_foregroundBlur_0_470"/>
</filter>
<filter id="filter3_f_0_470" x="293.791" y="172.995" width="625.403" height="676.138" filterUnits="userSpaceOnUse" color-interpolation-filters="sRGB">
<feFlood flood-opacity="0" result="BackgroundImageFix"/>
<feBlend mode="normal" in="SourceGraphic" in2="BackgroundImageFix" result="shape"/>
<feGaussianBlur stdDeviation="11.7595" result="effect1_foregroundBlur_0_470"/>
</filter>
<filter id="filter4_f_0_470" x="285.177" y="170.371" width="626.05" height="797.943" filterUnits="userSpaceOnUse" color-interpolation-filters="sRGB">
<feFlood flood-opacity="0" result="BackgroundImageFix"/>
<feBlend mode="normal" in="SourceGraphic" in2="BackgroundImageFix" result="shape"/>
<feGaussianBlur stdDeviation="31.7506" result="effect1_foregroundBlur_0_470"/>
</filter>
<filter id="filter5_f_0_470" x="135.832" y="136.066" width="825.581" height="1008.51" filterUnits="userSpaceOnUse" color-interpolation-filters="sRGB">
<feFlood flood-opacity="0" result="BackgroundImageFix"/>
<feBlend mode="normal" in="SourceGraphic" in2="BackgroundImageFix" result="shape"/>
<feGaussianBlur stdDeviation="78.7886" result="effect1_foregroundBlur_0_470"/>
</filter>
<filter id="filter6_f_0_470" x="246.122" y="122.111" width="648.507" height="752.503" filterUnits="userSpaceOnUse" color-interpolation-filters="sRGB">
<feFlood flood-opacity="0" result="BackgroundImageFix"/>
<feBlend mode="normal" in="SourceGraphic" in2="BackgroundImageFix" result="shape"/>
<feGaussianBlur stdDeviation="36.4544" result="effect1_foregroundBlur_0_470"/>
</filter>
<filter id="filter7_f_0_470" x="300.169" y="292.31" width="603.91" height="757.654" filterUnits="userSpaceOnUse" color-interpolation-filters="sRGB">
<feFlood flood-opacity="0" result="BackgroundImageFix"/>
<feBlend mode="normal" in="SourceGraphic" in2="BackgroundImageFix" result="shape"/>
<feGaussianBlur stdDeviation="39.9823" result="effect1_foregroundBlur_0_470"/>
</filter>
<filter id="filter8_f_0_470" x="237.158" y="283.812" width="377.032" height="360.772" filterUnits="userSpaceOnUse" color-interpolation-filters="sRGB">
<feFlood flood-opacity="0" result="BackgroundImageFix"/>
<feBlend mode="normal" in="SourceGraphic" in2="BackgroundImageFix" result="shape"/>
<feGaussianBlur stdDeviation="2.3519" result="effect1_foregroundBlur_0_470"/>
</filter>
<filter id="filter9_f_0_470" x="210.988" y="271.549" width="445.438" height="471.872" filterUnits="userSpaceOnUse" color-interpolation-filters="sRGB">
<feFlood flood-opacity="0" result="BackgroundImageFix"/>
<feBlend mode="normal" in="SourceGraphic" in2="BackgroundImageFix" result="shape"/>
<feGaussianBlur stdDeviation="8.23164" result="effect1_foregroundBlur_0_470"/>
</filter>
<filter id="filter10_f_0_470" x="172.692" y="292.81" width="582.478" height="638.859" filterUnits="userSpaceOnUse" color-interpolation-filters="sRGB">
<feFlood flood-opacity="0" result="BackgroundImageFix"/>
<feBlend mode="normal" in="SourceGraphic" in2="BackgroundImageFix" result="shape"/>
<feGaussianBlur stdDeviation="11.7595" result="effect1_foregroundBlur_0_470"/>
</filter>
<filter id="filter11_f_0_470" x="99.2259" y="272.952" width="764.198" height="638.749" filterUnits="userSpaceOnUse" color-interpolation-filters="sRGB">
<feFlood flood-opacity="0" result="BackgroundImageFix"/>
<feBlend mode="normal" in="SourceGraphic" in2="BackgroundImageFix" result="shape"/>
<feGaussianBlur stdDeviation="31.7506" result="effect1_foregroundBlur_0_470"/>
</filter>
<filter id="filter12_f_0_470" x="87.3948" y="212.067" width="945.146" height="800.265" filterUnits="userSpaceOnUse" color-interpolation-filters="sRGB">
<feFlood flood-opacity="0" result="BackgroundImageFix"/>
<feBlend mode="normal" in="SourceGraphic" in2="BackgroundImageFix" result="shape"/>
<feGaussianBlur stdDeviation="78.7886" result="effect1_foregroundBlur_0_470"/>
</filter>
<filter id="filter13_f_0_470" x="135.09" y="296.795" width="657.693" height="657.961" filterUnits="userSpaceOnUse" color-interpolation-filters="sRGB">
<feFlood flood-opacity="0" result="BackgroundImageFix"/>
<feBlend mode="normal" in="SourceGraphic" in2="BackgroundImageFix" result="shape"/>
<feGaussianBlur stdDeviation="36.4544" result="effect1_foregroundBlur_0_470"/>
</filter>
<filter id="filter14_f_0_470" x="261.997" y="607.689" width="389.227" height="395.606" filterUnits="userSpaceOnUse" color-interpolation-filters="sRGB">
<feFlood flood-opacity="0" result="BackgroundImageFix"/>
<feBlend mode="normal" in="SourceGraphic" in2="BackgroundImageFix" result="shape"/>
<feGaussianBlur stdDeviation="2.3519" result="effect1_foregroundBlur_0_470"/>
</filter>
<filter id="filter15_f_0_470" x="249.946" y="473.818" width="486.053" height="539.271" filterUnits="userSpaceOnUse" color-interpolation-filters="sRGB">
<feFlood flood-opacity="0" result="BackgroundImageFix"/>
<feBlend mode="normal" in="SourceGraphic" in2="BackgroundImageFix" result="shape"/>
<feGaussianBlur stdDeviation="8.23164" result="effect1_foregroundBlur_0_470"/>
</filter>
<filter id="filter16_f_0_470" x="244.513" y="368.065" width="617.549" height="659.544" filterUnits="userSpaceOnUse" color-interpolation-filters="sRGB">
<feFlood flood-opacity="0" result="BackgroundImageFix"/>
<feBlend mode="normal" in="SourceGraphic" in2="BackgroundImageFix" result="shape"/>
<feGaussianBlur stdDeviation="11.7595" result="effect1_foregroundBlur_0_470"/>
</filter>
<filter id="filter17_f_0_470" x="215.692" y="288.303" width="595.256" height="778.772" filterUnits="userSpaceOnUse" color-interpolation-filters="sRGB">
<feFlood flood-opacity="0" result="BackgroundImageFix"/>
<feBlend mode="normal" in="SourceGraphic" in2="BackgroundImageFix" result="shape"/>
<feGaussianBlur stdDeviation="31.7506" result="effect1_foregroundBlur_0_470"/>
</filter>
<filter id="filter18_f_0_470" x="125.278" y="99.1763" width="871.046" height="1001" filterUnits="userSpaceOnUse" color-interpolation-filters="sRGB">
<feFlood flood-opacity="0" result="BackgroundImageFix"/>
<feBlend mode="normal" in="SourceGraphic" in2="BackgroundImageFix" result="shape"/>
<feGaussianBlur stdDeviation="78.7886" result="effect1_foregroundBlur_0_470"/>
</filter>
<filter id="filter19_f_0_470" x="255.41" y="374.821" width="634.69" height="674.279" filterUnits="userSpaceOnUse" color-interpolation-filters="sRGB">
<feFlood flood-opacity="0" result="BackgroundImageFix"/>
<feBlend mode="normal" in="SourceGraphic" in2="BackgroundImageFix" result="shape"/>
<feGaussianBlur stdDeviation="36.4544" result="effect1_foregroundBlur_0_470"/>
</filter>
<filter id="filter20_f_0_470" x="291.309" y="317.385" width="553.558" height="742.123" filterUnits="userSpaceOnUse" color-interpolation-filters="sRGB">
<feFlood flood-opacity="0" result="BackgroundImageFix"/>
<feBlend mode="normal" in="SourceGraphic" in2="BackgroundImageFix" result="shape"/>
<feGaussianBlur stdDeviation="49.3899" result="effect1_foregroundBlur_0_470"/>
</filter>
<linearGradient id="paint0_linear_0_470" x1="673.79" y1="486.048" x2="464.312" y2="230.562" gradientUnits="userSpaceOnUse">
<stop stop-color="#C4C4C4"/>
<stop offset="1" stop-color="#C4C4C4" stop-opacity="0"/>
</linearGradient>
<linearGradient id="paint1_linear_0_470" x1="898.119" y1="486.408" x2="432.958" y2="501.222" gradientUnits="userSpaceOnUse">
<stop stop-color="#C4C4C4"/>
<stop offset="1" stop-color="#C4C4C4" stop-opacity="0"/>
</linearGradient>
<linearGradient id="paint2_linear_0_470" x1="364.063" y1="437.028" x2="909.632" y2="491.817" gradientUnits="userSpaceOnUse">
<stop offset="0.26194" stop-color="#013322"/>
<stop offset="0.424264" stop-color="#01462F"/>
<stop offset="1" stop-color="#028A5C"/>
</linearGradient>
<linearGradient id="paint3_linear_0_470" x1="585.157" y1="403.972" x2="271.872" y2="476.542" gradientUnits="userSpaceOnUse">
<stop stop-color="#C4C4C4"/>
<stop offset="0.943414" stop-color="#C4C4C4" stop-opacity="0"/>
</linearGradient>
<linearGradient id="paint4_linear_0_470" x1="421.792" y1="387.717" x2="437.105" y2="760.232" gradientUnits="userSpaceOnUse">
<stop stop-color="#C4C4C4"/>
<stop offset="1" stop-color="#C4C4C4" stop-opacity="0"/>
</linearGradient>
<linearGradient id="paint5_linear_0_470" x1="283.885" y1="899.554" x2="719.111" y2="421.651" gradientUnits="userSpaceOnUse">
<stop stop-color="#C4C4C4"/>
<stop offset="1" stop-color="#C4C4C4" stop-opacity="0"/>
</linearGradient>
</defs>
</svg>
