<svg preserveAspectRatio="none" width="100%" height="100%" overflow="visible" style="display: block;" viewBox="0 0 1819.18 2028.97" fill="none" xmlns="http://www.w3.org/2000/svg">
<g id="Group 47225">
<g id="Ellipse 1402" filter="url(#filter0_f_0_577)">
<ellipse cx="757.974" cy="786.92" rx="268.698" ry="408.541" transform="rotate(-55.9263 757.974 786.92)" fill="var(--fill-0, #87A348)"/>
</g>
<g id="Mask Group">
<mask id="mask0_0_577" style="mask-type:alpha" maskUnits="userSpaceOnUse" x="95" y="90" width="1576" height="1162">
<path id="Vector 117" d="M1670.24 998.688L1438.57 90.6679L535.936 144.91L299.417 239.894L95.5716 875.008L279.737 1251.16L1036.11 1140.2L1670.24 998.688Z" fill="url(#paint0_linear_0_577)"/>
</mask>
<g mask="url(#mask0_0_577)">
<g id="Mask Group_2">
<mask id="mask1_0_577" style="mask-type:alpha" maskUnits="userSpaceOnUse" x="113" y="56" width="1568" height="1188">
<path id="Vector 116" d="M209.248 1243.09C147.151 815.797 117.768 269.98 113.268 248.907L1464.73 56.4805L1680.42 1001.99L209.248 1243.09Z" fill="url(#paint1_linear_0_577)"/>
</mask>
<g mask="url(#mask1_0_577)">
<g id="Group 46881">
<path id="Ellipse 1395" d="M634.684 344.325C782.627 322.622 929.457 457.374 949.58 594.541C969.702 731.708 936.222 920.501 777.492 943.787C698.834 955.326 616.78 1061.03 513.306 1006.43C407.975 950.855 402.162 760.602 392.011 691.408C371.888 554.241 486.742 366.029 634.684 344.325Z" fill="var(--fill-0, #132821)"/>
<g id="Ellipse 1396" filter="url(#filter1_f_0_577)">
<path d="M634.635 356.332C793.3 333.056 924.278 435.182 939.9 541.674C955.522 648.165 916.161 796.699 757.496 819.975C678.87 831.509 594.252 919.471 493.058 880.144C390.046 840.111 390.362 691.697 382.481 637.977C366.859 531.485 475.97 379.608 634.635 356.332Z" fill="var(--fill-0, #132821)"/>
</g>
<g id="Ellipse 1397" filter="url(#filter2_f_0_577)">
<path d="M639.437 355.629C817.27 329.541 966.056 457.543 985.347 589.037C1004.64 720.532 962.857 902.938 785.025 929.026C696.9 941.954 605.094 1061.22 490.789 1011.1C374.43 960.077 370.723 766.056 360.992 699.724C341.702 568.229 461.605 381.717 639.437 355.629Z" fill="var(--fill-0, #132821)"/>
</g>
<g id="Ellipse 1398" filter="url(#filter3_f_0_577)">
<path d="M666.33 395.556C891.12 399.002 1100.64 560.857 1125.6 730.983C1150.56 901.11 1066.1 1101.37 852.827 1132.66C747.139 1148.17 638.477 1353.52 500.482 1287.22C360.009 1219.73 327.09 907.149 314.5 821.328C289.542 651.202 405.924 391.563 666.33 395.556Z" fill="var(--fill-0, #132821)"/>
</g>
<g id="Ellipse 1399" filter="url(#filter4_f_0_577)">
<path d="M730.166 430.238C959.807 396.549 1206.06 584.333 1230.46 750.668C1254.86 917.002 1161.25 1114.42 931.61 1148.11C817.812 1164.8 688.952 1248.55 541.599 1185.56C391.599 1121.43 273.89 786.379 261.58 702.472C237.179 536.138 500.525 463.926 730.166 430.238Z" fill="var(--fill-0, #132821)"/>
</g>
<g id="Ellipse 1400" filter="url(#filter5_f_0_577)">
<path d="M845.684 481.113C1083 446.3 1320.19 640.519 1345.14 810.646C1370.1 980.772 1273.08 1182.88 1035.77 1217.69C918.171 1234.94 708.816 1030.55 556.669 966.323C401.788 900.947 400.09 664.171 387.5 578.35C362.543 408.223 608.372 515.927 845.684 481.113Z" fill="var(--fill-0, #132821)"/>
</g>
<g id="Ellipse 1401" filter="url(#filter6_f_0_577)">
<path d="M663.223 480.245C870.872 449.783 1082.52 647.749 1107.48 817.875C1132.44 988.002 1050.92 1187.84 843.272 1218.3C740.372 1233.39 622.071 1296.98 487.389 1230.19C350.287 1162.21 344.546 926.023 331.956 840.202C306.999 670.075 455.575 510.707 663.223 480.245Z" fill="var(--fill-0, #132821)"/>
</g>
</g>
</g>
</g>
</g>
</g>
<g id="Mask Group_3">
<mask id="mask2_0_577" style="mask-type:alpha" maskUnits="userSpaceOnUse" x="185" y="153" width="1635" height="1876">
<path id="Vector 116_2" d="M185.752 625.251C567.239 423.014 1053.93 165.103 1072.13 153.525L1819.18 1557.24L932.806 2028.97L185.752 625.251Z" fill="url(#paint2_linear_0_577)"/>
</mask>
<g mask="url(#mask2_0_577)">
<g id="Group 46881_2">
<path id="Ellipse 1395_2" d="M1262.49 887.767C1346.75 1046.09 1281.08 1251.85 1158.7 1316.98C1036.32 1382.11 841.602 1403.5 751.201 1233.63C706.402 1149.46 570.199 1090.79 577.919 958.348C585.777 823.526 765.012 757.843 826.748 724.987C949.131 659.855 1178.23 729.446 1262.49 887.767Z" fill="var(--fill-0, #A9CC59)"/>
<g id="Ellipse 1396_2" filter="url(#filter7_f_0_577)">
<path d="M1251 891.447C1341.36 1061.24 1288.7 1245.21 1183.5 1301.19C1078.3 1357.18 906.158 1366.59 815.794 1196.79C771.014 1112.65 643.586 1049.37 642.769 921.519C641.937 791.375 797.726 738.158 850.793 709.916C955.989 653.931 1160.63 721.652 1251 891.447Z" fill="var(--fill-0, #A9CC59)"/>
</g>
<g id="Ellipse 1397_2" filter="url(#filter8_f_0_577)">
<path d="M1253.73 896.591C1355.01 1086.9 1282.83 1300.09 1153.14 1369.11C1023.45 1438.13 815.034 1456.91 713.753 1266.6C663.563 1172.3 500.472 1112.16 505.427 965.739C510.471 816.693 712.13 742.651 777.555 707.833C907.249 638.81 1152.45 706.283 1253.73 896.591Z" fill="var(--fill-0, #A9CC59)"/>
</g>
<g id="Ellipse 1398_2" filter="url(#filter9_f_0_577)">
<path d="M1250.06 926.729C1343.3 1178.62 1278.66 1462.77 1126.87 1543.55C975.081 1624.33 747.521 1592.41 626.054 1364.17C565.862 1251.07 323.049 1193.72 327.123 1019.12C331.271 841.377 554.847 762.304 631.417 721.553C783.208 640.771 1142.06 634.927 1250.06 926.729Z" fill="var(--fill-0, #A9CC59)"/>
</g>
<g id="Ellipse 1399_2" filter="url(#filter10_f_0_577)">
<path d="M1230.76 1038.59C1361.55 1284.34 1278.58 1599.98 1130.17 1678.96C981.766 1757.94 752.993 1714.92 622.205 1469.17C557.394 1347.39 422.063 1229.67 418.965 1045.65C415.81 858.325 636.042 784.095 710.905 744.253C859.311 665.271 1099.98 792.836 1230.76 1038.59Z" fill="var(--fill-0, #A9CC59)"/>
</g>
<g id="Ellipse 1400_2" filter="url(#filter11_f_0_577)">
<path d="M1218.52 1161.43C1353.68 1415.39 1270.01 1740.48 1118.22 1821.26C966.426 1902.04 731.712 1856.68 596.555 1602.72C529.578 1476.87 390.327 1354.89 386.341 1165.14C382.283 971.987 607.725 896.419 684.296 855.668C836.086 774.886 1083.36 907.473 1218.52 1161.43Z" fill="var(--fill-0, #A9CC59)"/>
</g>
<g id="Ellipse 1401_2" filter="url(#filter12_f_0_577)">
<path d="M1144.91 961.901C1263.17 1184.12 1164.96 1481.87 1013.17 1562.66C861.379 1643.44 635.492 1614.66 517.23 1392.44C458.625 1282.32 347.091 1170.11 353.052 999.05C359.12 824.919 582.259 745.025 658.83 704.275C810.62 623.493 1026.65 739.686 1144.91 961.901Z" fill="var(--fill-0, #A9CC59)"/>
</g>
</g>
</g>
</g>
</g>
<defs>
<filter id="filter0_f_0_577" x="138.97" y="219.125" width="1238.01" height="1135.59" filterUnits="userSpaceOnUse" color-interpolation-filters="sRGB">
<feFlood flood-opacity="0" result="BackgroundImageFix"/>
<feBlend mode="normal" in="SourceGraphic" in2="BackgroundImageFix" result="shape"/>
<feGaussianBlur stdDeviation="124.268" result="effect1_foregroundBlur_0_577"/>
</filter>
<filter id="filter1_f_0_577" x="371.054" y="343.047" width="581.952" height="557.091" filterUnits="userSpaceOnUse" color-interpolation-filters="sRGB">
<feFlood flood-opacity="0" result="BackgroundImageFix"/>
<feBlend mode="normal" in="SourceGraphic" in2="BackgroundImageFix" result="shape"/>
<feGaussianBlur stdDeviation="4.97072" result="effect1_foregroundBlur_0_577"/>
</filter>
<filter id="filter2_f_0_577" x="324.164" y="317.424" width="700.288" height="740.703" filterUnits="userSpaceOnUse" color-interpolation-filters="sRGB">
<feFlood flood-opacity="0" result="BackgroundImageFix"/>
<feBlend mode="normal" in="SourceGraphic" in2="BackgroundImageFix" result="shape"/>
<feGaussianBlur stdDeviation="17.3975" result="effect1_foregroundBlur_0_577"/>
</filter>
<filter id="filter3_f_0_577" x="261.489" y="345.803" width="918.061" height="1004.26" filterUnits="userSpaceOnUse" color-interpolation-filters="sRGB">
<feFlood flood-opacity="0" result="BackgroundImageFix"/>
<feBlend mode="normal" in="SourceGraphic" in2="BackgroundImageFix" result="shape"/>
<feGaussianBlur stdDeviation="24.8536" result="effect1_foregroundBlur_0_577"/>
</filter>
<filter id="filter4_f_0_577" x="125.794" y="292.071" width="1242.64" height="1050.84" filterUnits="userSpaceOnUse" color-interpolation-filters="sRGB">
<feFlood flood-opacity="0" result="BackgroundImageFix"/>
<feBlend mode="normal" in="SourceGraphic" in2="BackgroundImageFix" result="shape"/>
<feGaussianBlur stdDeviation="67.1047" result="effect1_foregroundBlur_0_577"/>
</filter>
<filter id="filter5_f_0_577" x="52.7087" y="143.988" width="1629.28" height="1407.77" filterUnits="userSpaceOnUse" color-interpolation-filters="sRGB">
<feFlood flood-opacity="0" result="BackgroundImageFix"/>
<feBlend mode="normal" in="SourceGraphic" in2="BackgroundImageFix" result="shape"/>
<feGaussianBlur stdDeviation="166.519" result="effect1_foregroundBlur_0_577"/>
</filter>
<filter id="filter6_f_0_577" x="175.128" y="323.026" width="1090.8" height="1091.21" filterUnits="userSpaceOnUse" color-interpolation-filters="sRGB">
<feFlood flood-opacity="0" result="BackgroundImageFix"/>
<feBlend mode="normal" in="SourceGraphic" in2="BackgroundImageFix" result="shape"/>
<feGaussianBlur stdDeviation="77.0461" result="effect1_foregroundBlur_0_577"/>
</filter>
<filter id="filter7_f_0_577" x="632.824" y="680.713" width="674.327" height="666.805" filterUnits="userSpaceOnUse" color-interpolation-filters="sRGB">
<feFlood flood-opacity="0" result="BackgroundImageFix"/>
<feBlend mode="normal" in="SourceGraphic" in2="BackgroundImageFix" result="shape"/>
<feGaussianBlur stdDeviation="4.97072" result="effect1_foregroundBlur_0_577"/>
</filter>
<filter id="filter8_f_0_577" x="470.521" y="646.635" width="865.774" height="805.889" filterUnits="userSpaceOnUse" color-interpolation-filters="sRGB">
<feFlood flood-opacity="0" result="BackgroundImageFix"/>
<feBlend mode="normal" in="SourceGraphic" in2="BackgroundImageFix" result="shape"/>
<feGaussianBlur stdDeviation="17.3975" result="effect1_foregroundBlur_0_577"/>
</filter>
<filter id="filter9_f_0_577" x="277.365" y="624.108" width="1065.73" height="1009.34" filterUnits="userSpaceOnUse" color-interpolation-filters="sRGB">
<feFlood flood-opacity="0" result="BackgroundImageFix"/>
<feBlend mode="normal" in="SourceGraphic" in2="BackgroundImageFix" result="shape"/>
<feGaussianBlur stdDeviation="24.8536" result="effect1_foregroundBlur_0_577"/>
</filter>
<filter id="filter10_f_0_577" x="284.722" y="586.733" width="1145.38" height="1262.41" filterUnits="userSpaceOnUse" color-interpolation-filters="sRGB">
<feFlood flood-opacity="0" result="BackgroundImageFix"/>
<feBlend mode="normal" in="SourceGraphic" in2="BackgroundImageFix" result="shape"/>
<feGaussianBlur stdDeviation="67.1047" result="effect1_foregroundBlur_0_577"/>
</filter>
<filter id="filter11_f_0_577" x="53.2487" y="499.026" width="1566.27" height="1691.72" filterUnits="userSpaceOnUse" color-interpolation-filters="sRGB">
<feFlood flood-opacity="0" result="BackgroundImageFix"/>
<feBlend mode="normal" in="SourceGraphic" in2="BackgroundImageFix" result="shape"/>
<feGaussianBlur stdDeviation="166.519" result="effect1_foregroundBlur_0_577"/>
</filter>
<filter id="filter12_f_0_577" x="198.73" y="524.489" width="1152.7" height="1233.43" filterUnits="userSpaceOnUse" color-interpolation-filters="sRGB">
<feFlood flood-opacity="0" result="BackgroundImageFix"/>
<feBlend mode="normal" in="SourceGraphic" in2="BackgroundImageFix" result="shape"/>
<feGaussianBlur stdDeviation="77.0461" result="effect1_foregroundBlur_0_577"/>
</filter>
<linearGradient id="paint0_linear_0_577" x1="905.864" y1="529.513" x2="426.876" y2="640.467" gradientUnits="userSpaceOnUse">
<stop stop-color="#C4C4C4"/>
<stop offset="0.943414" stop-color="#C4C4C4" stop-opacity="0"/>
</linearGradient>
<linearGradient id="paint1_linear_0_577" x1="656.09" y1="504.659" x2="679.503" y2="1074.2" gradientUnits="userSpaceOnUse">
<stop stop-color="#C4C4C4"/>
<stop offset="1" stop-color="#C4C4C4" stop-opacity="0"/>
</linearGradient>
<linearGradient id="paint2_linear_0_577" x1="1244.06" y1="815.152" x2="626.878" y2="1169.27" gradientUnits="userSpaceOnUse">
<stop stop-color="#C4C4C4"/>
<stop offset="1" stop-color="#C4C4C4" stop-opacity="0"/>
</linearGradient>
</defs>
</svg>
