<svg preserveAspectRatio="none" width="100%" height="100%" overflow="visible" style="display: block;" viewBox="0 0 857.148 1121.38" fill="none" xmlns="http://www.w3.org/2000/svg">
<g id="Mask Group" opacity="0.6">
<mask id="mask0_0_536" style="mask-type:alpha" maskUnits="userSpaceOnUse" x="0" y="0" width="858" height="1122">
<path id="Vector 116" d="M0 0C279.908 0.491188 843.208 1.17885 857.148 0L857.148 1121.38H0L0 0Z" fill="url(#paint0_linear_0_536)"/>
</mask>
<g mask="url(#mask0_0_536)">
<g id="Group 46881">
<g id="Ellipse 1395" filter="url(#filter0_f_0_536)">
<path d="M819.494 471.242C793.753 588.392 719.248 704.058 629.375 704.058C539.502 704.058 421.56 652.86 421.56 517.161C421.56 449.915 361.482 452.048 406.237 372.154C451.796 290.826 574.371 309.319 619.708 309.319C709.581 309.319 845.235 354.093 819.494 471.242Z" fill="var(--fill-0, #82A239)"/>
</g>
<g id="Ellipse 1396" filter="url(#filter1_f_0_536)">
<path d="M814.218 485.901C750.602 676.97 725.625 702.447 648.373 702.447C571.121 702.447 469.742 651.269 469.742 515.626C469.742 448.408 416.092 452.185 454.562 372.324C493.723 291.029 601.281 309.514 640.251 309.514C717.503 309.514 850.793 391.532 814.218 485.901Z" fill="var(--fill-0, #82A239)"/>
</g>
<g id="Ellipse 1397" filter="url(#filter2_f_0_536)">
<path d="M811.795 473.836C765.233 702.272 635.39 797.219 540.148 797.219C444.906 797.219 390.088 677.311 390.088 525.28C390.088 449.942 315.071 500.251 362.5 410.742C410.78 319.626 560.368 324.197 608.413 324.197C703.655 324.197 811.795 321.806 811.795 473.836Z" fill="var(--fill-0, #82A239)"/>
</g>
<g id="Ellipse 1398" filter="url(#filter3_f_0_536)">
<path d="M800.519 491.383C762.571 693.396 629.253 893.155 517.785 893.155C406.317 893.155 310.188 739.295 310.188 556.965C310.188 466.612 188.699 492.245 244.208 384.898C300.714 275.622 452.743 300.469 508.974 300.469C620.442 300.469 838.466 289.37 800.519 491.383Z" fill="var(--fill-0, #82A239)"/>
</g>
<g id="Ellipse 1399" filter="url(#filter4_f_0_536)">
<path d="M743.89 646.36C630.512 938.891 622.253 942.265 513.27 942.265C404.286 942.265 274.096 828.271 274.096 631.95C274.096 534.663 293.573 510.818 347.844 395.233C403.09 277.572 579.491 310.19 634.468 310.19C743.451 310.19 809.639 476.715 743.89 646.36Z" fill="var(--fill-0, #82A239)"/>
</g>
<g id="Ellipse 1400" filter="url(#filter5_f_0_536)">
<path d="M711.9 631.032C711.9 833.913 565.009 1008.57 453.54 1008.57C342.072 1008.57 221.569 902.564 221.569 699.684C221.569 599.146 217.401 428.776 272.91 309.329C329.416 187.737 543.35 354.87 599.581 354.87C711.049 354.87 711.9 428.152 711.9 631.032Z" fill="var(--fill-0, #82A239)"/>
</g>
<g id="Ellipse 1401" filter="url(#filter6_f_0_536)">
<path d="M729.621 478.437C729.621 655.958 582.73 808.783 471.262 808.783C359.794 808.783 239.29 716.027 239.29 538.507C239.29 450.537 209.639 511.288 265.148 406.772C321.654 300.379 473.683 324.571 529.914 324.571C641.382 324.571 729.621 300.917 729.621 478.437Z" fill="var(--fill-0, #82A239)"/>
</g>
</g>
</g>
</g>
<defs>
<filter id="filter0_f_0_536" x="283.866" y="201.712" width="644.621" height="608.147" filterUnits="userSpaceOnUse" color-interpolation-filters="sRGB">
<feFlood flood-opacity="0" result="BackgroundImageFix"/>
<feBlend mode="normal" in="SourceGraphic" in2="BackgroundImageFix" result="shape"/>
<feGaussianBlur stdDeviation="52.9" result="effect1_foregroundBlur_0_536"/>
</filter>
<filter id="filter1_f_0_536" x="435.969" y="303.004" width="389.176" height="404.147" filterUnits="userSpaceOnUse" color-interpolation-filters="sRGB">
<feFlood flood-opacity="0" result="BackgroundImageFix"/>
<feBlend mode="normal" in="SourceGraphic" in2="BackgroundImageFix" result="shape"/>
<feGaussianBlur stdDeviation="2.3519" result="effect1_foregroundBlur_0_536"/>
</filter>
<filter id="filter2_f_0_536" x="330.317" y="307.696" width="497.941" height="505.986" filterUnits="userSpaceOnUse" color-interpolation-filters="sRGB">
<feFlood flood-opacity="0" result="BackgroundImageFix"/>
<feBlend mode="normal" in="SourceGraphic" in2="BackgroundImageFix" result="shape"/>
<feGaussianBlur stdDeviation="8.23164" result="effect1_foregroundBlur_0_536"/>
</filter>
<filter id="filter3_f_0_536" x="166.584" y="234.941" width="701.415" height="721.314" filterUnits="userSpaceOnUse" color-interpolation-filters="sRGB">
<feFlood flood-opacity="0" result="BackgroundImageFix"/>
<feBlend mode="normal" in="SourceGraphic" in2="BackgroundImageFix" result="shape"/>
<feGaussianBlur stdDeviation="31.55" result="effect1_foregroundBlur_0_536"/>
</filter>
<filter id="filter4_f_0_536" x="153.796" y="185.74" width="736.557" height="876.825" filterUnits="userSpaceOnUse" color-interpolation-filters="sRGB">
<feFlood flood-opacity="0" result="BackgroundImageFix"/>
<feBlend mode="normal" in="SourceGraphic" in2="BackgroundImageFix" result="shape"/>
<feGaussianBlur stdDeviation="60.15" result="effect1_foregroundBlur_0_536"/>
</filter>
<filter id="filter5_f_0_536" x="63.9203" y="107.429" width="805.556" height="1058.72" filterUnits="userSpaceOnUse" color-interpolation-filters="sRGB">
<feFlood flood-opacity="0" result="BackgroundImageFix"/>
<feBlend mode="normal" in="SourceGraphic" in2="BackgroundImageFix" result="shape"/>
<feGaussianBlur stdDeviation="78.7886" result="effect1_foregroundBlur_0_536"/>
</filter>
<filter id="filter6_f_0_536" x="54.6796" y="145.507" width="851.642" height="839.977" filterUnits="userSpaceOnUse" color-interpolation-filters="sRGB">
<feFlood flood-opacity="0" result="BackgroundImageFix"/>
<feBlend mode="normal" in="SourceGraphic" in2="BackgroundImageFix" result="shape"/>
<feGaussianBlur stdDeviation="88.35" result="effect1_foregroundBlur_0_536"/>
</filter>
<linearGradient id="paint0_linear_0_536" x1="805.591" y1="468.854" x2="227.072" y2="757.177" gradientUnits="userSpaceOnUse">
<stop stop-color="#C4C4C4"/>
<stop offset="1" stop-color="#C4C4C4" stop-opacity="0"/>
</linearGradient>
</defs>
</svg>
