<svg preserveAspectRatio="none" width="100%" height="100%" overflow="visible" style="display: block;" viewBox="0 0 953.118 1398.53" fill="none" xmlns="http://www.w3.org/2000/svg">
<g id="Mask Group">
<mask id="mask0_0_436" style="mask-type:alpha" maskUnits="userSpaceOnUse" x="0" y="0" width="954" height="1399">
<path id="Vector 116" d="M5.91326 0C448.269 0.594927 931.088 1.42783 953.118 0L947.205 1398.53H0L5.91326 0Z" fill="url(#paint0_linear_0_436)"/>
</mask>
<g mask="url(#mask0_0_436)">
<g id="Group 46881">
<path id="Ellipse 1395" d="M836.237 606.839C836.237 704.903 734.821 787.352 643.9 787.352C552.978 787.352 433.66 747.656 433.66 642.442C433.66 590.303 372.882 526.997 418.159 465.052C464.249 401.994 588.254 416.333 634.12 416.333C725.041 416.333 836.237 508.776 836.237 606.839Z" fill="var(--fill-0, #132821)"/>
<g id="Ellipse 1396" filter="url(#filter0_f_0_436)">
<path d="M828.448 605.664C828.448 710.835 749.712 786.104 679.124 786.104C608.536 786.104 515.901 746.423 515.901 641.252C515.901 589.135 466.879 525.855 502.03 463.935C537.813 400.903 634.087 415.235 669.695 415.235C740.284 415.235 828.448 500.493 828.448 605.664Z" fill="var(--fill-0, #132821)"/>
</g>
<g id="Ellipse 1397" filter="url(#filter1_f_0_436)">
<path d="M828.448 608.848C828.448 726.724 731.226 811.085 644.064 811.085C556.903 811.085 442.519 766.612 442.519 648.735C442.519 590.322 373.867 519.397 417.272 449.997C461.456 379.35 587.706 395.414 631.675 395.414C718.836 395.414 828.448 490.972 828.448 608.848Z" fill="var(--fill-0, #132821)"/>
</g>
<g id="Ellipse 1398" filter="url(#filter2_f_0_436)">
<path d="M799.979 622.498C776.345 768.033 651.375 888.583 538.606 888.583C425.837 888.583 303.928 814.717 303.928 673.347C303.928 603.292 181.023 513.235 237.179 430.003C294.345 345.276 500.306 353.67 557.193 353.67C669.961 353.67 827.359 453.904 799.979 622.498Z" fill="var(--fill-0, #132821)"/>
</g>
<g id="Ellipse 1399" filter="url(#filter3_f_0_436)">
<path d="M771.398 660.619C771.398 812.836 626.107 954.751 515.852 954.751C405.597 954.751 286.406 875.216 286.406 722.998C286.406 647.567 244.329 555.979 299.233 466.361C355.124 375.132 583.737 330.646 639.355 330.646C749.61 330.646 771.398 508.401 771.398 660.619Z" fill="var(--fill-0, #132821)"/>
</g>
<g id="Ellipse 1400" filter="url(#filter4_f_0_436)">
<path d="M727.39 730.735C727.39 888.038 578.785 1023.46 466.016 1023.46C353.248 1023.46 231.339 941.266 231.339 783.963C231.339 706.012 383.899 589.621 440.055 497.008C497.221 402.732 651.023 424.169 707.909 424.169C820.678 424.169 727.39 573.432 727.39 730.735Z" fill="var(--fill-0, #132821)"/>
</g>
<g id="Ellipse 1401" filter="url(#filter5_f_0_436)">
<path d="M745.322 612.42C745.322 750.06 596.718 868.553 483.949 868.553C371.181 868.553 249.271 796.635 249.271 658.995C249.271 590.788 219.275 507.971 275.431 426.935C332.596 344.443 486.399 363.201 543.285 363.201C656.054 363.201 745.322 474.78 745.322 612.42Z" fill="var(--fill-0, #132821)"/>
</g>
</g>
</g>
</g>
<defs>
<filter id="filter0_f_0_436" x="482.819" y="407.315" width="352.148" height="385.309" filterUnits="userSpaceOnUse" color-interpolation-filters="sRGB">
<feFlood flood-opacity="0" result="BackgroundImageFix"/>
<feBlend mode="normal" in="SourceGraphic" in2="BackgroundImageFix" result="shape"/>
<feGaussianBlur stdDeviation="3.25995" result="effect1_foregroundBlur_0_436"/>
</filter>
<filter id="filter1_f_0_436" x="380.066" y="371.025" width="471.201" height="462.881" filterUnits="userSpaceOnUse" color-interpolation-filters="sRGB">
<feFlood flood-opacity="0" result="BackgroundImageFix"/>
<feBlend mode="normal" in="SourceGraphic" in2="BackgroundImageFix" result="shape"/>
<feGaussianBlur stdDeviation="11.4098" result="effect1_foregroundBlur_0_436"/>
</filter>
<filter id="filter2_f_0_436" x="189.886" y="320.841" width="645.836" height="600.341" filterUnits="userSpaceOnUse" color-interpolation-filters="sRGB">
<feFlood flood-opacity="0" result="BackgroundImageFix"/>
<feBlend mode="normal" in="SourceGraphic" in2="BackgroundImageFix" result="shape"/>
<feGaussianBlur stdDeviation="16.2998" result="effect1_foregroundBlur_0_436"/>
</filter>
<filter id="filter3_f_0_436" x="182.977" y="242.627" width="676.44" height="800.142" filterUnits="userSpaceOnUse" color-interpolation-filters="sRGB">
<feFlood flood-opacity="0" result="BackgroundImageFix"/>
<feBlend mode="normal" in="SourceGraphic" in2="BackgroundImageFix" result="shape"/>
<feGaussianBlur stdDeviation="44.0093" result="effect1_foregroundBlur_0_436"/>
</filter>
<filter id="filter4_f_0_436" x="12.9219" y="203.658" width="969.125" height="1038.22" filterUnits="userSpaceOnUse" color-interpolation-filters="sRGB">
<feFlood flood-opacity="0" result="BackgroundImageFix"/>
<feBlend mode="normal" in="SourceGraphic" in2="BackgroundImageFix" result="shape"/>
<feGaussianBlur stdDeviation="109.208" result="effect1_foregroundBlur_0_436"/>
</filter>
<filter id="filter5_f_0_436" x="140.21" y="260.309" width="706.171" height="709.302" filterUnits="userSpaceOnUse" color-interpolation-filters="sRGB">
<feFlood flood-opacity="0" result="BackgroundImageFix"/>
<feBlend mode="normal" in="SourceGraphic" in2="BackgroundImageFix" result="shape"/>
<feGaussianBlur stdDeviation="50.5292" result="effect1_foregroundBlur_0_436"/>
</filter>
<linearGradient id="paint0_linear_0_436" x1="687.974" y1="562.749" x2="107.171" y2="501.788" gradientUnits="userSpaceOnUse">
<stop stop-color="#C4C4C4"/>
<stop offset="1" stop-color="#C4C4C4" stop-opacity="0"/>
</linearGradient>
</defs>
</svg>
